<?xml version="1.0" encoding="UTF-8"?>
<svg version="1.1" xmlns="http://www.w3.org/2000/svg" width="437" height="435">
<path d="M0 0 C4.34586828 -0.39507893 6.32003497 -0.45331002 10 2 C12.33425788 1.6732039 14.66742506 1.33859959 17 1 C18.37112172 1.11047352 19.73908569 1.26614596 21.10118198 1.45816898 C26.16920355 2.07505285 31.15567756 2.13066296 36.25608826 2.10679626 C37.25058662 2.10623956 38.24508498 2.10568285 39.26971966 2.10510927 C42.58144982 2.1020882 45.89311853 2.09191485 49.20483398 2.08178711 C51.58712196 2.07822878 53.96941067 2.0751434 56.35169983 2.07249451 C61.47042669 2.06595687 66.58913593 2.05640651 71.70785332 2.04459953 C79.11070841 2.02758233 86.51355954 2.01805861 93.91642988 2.0107208 C105.93184018 1.99879463 117.94724417 1.98385042 129.96264648 1.96557617 C130.68076112 1.96448605 131.39887576 1.96339593 132.13875145 1.96227277 C142.34831083 1.94663483 152.55786274 1.92803314 162.76741488 1.9082749 C163.48765185 1.90688158 164.20788883 1.90548827 164.94995117 1.90405273 C166.02898759 1.90196244 166.02898759 1.90196244 167.12982272 1.89982992 C179.11050418 1.87682144 191.09118076 1.86149062 203.07188088 1.85249335 C209.79668254 1.84716017 216.52143518 1.83787486 223.24621391 1.81910515 C229.56057848 1.80170815 235.87488796 1.79334665 242.18927574 1.79207802 C244.5121443 1.78992184 246.83501249 1.78430062 249.15786362 1.7750473 C252.31624709 1.76294714 255.47439788 1.76299842 258.63279724 1.76622009 C259.56244197 1.75971229 260.4920867 1.75320449 261.44990247 1.74649948 C262.29131601 1.74986488 263.13272955 1.75323027 263.99964046 1.75669765 C264.72914093 1.75539614 265.45864139 1.75409463 266.21024793 1.75275367 C268 2 268 2 270 4 C270.19124117 6.73957892 270.25601919 9.3774297 270.23377991 12.1177063 C270.23478319 12.9675953 270.23578647 13.8174843 270.23682016 14.69312751 C270.23777759 17.55999544 270.22439448 20.4266219 270.21118164 23.29345703 C270.20898113 25.34392218 270.20767509 27.39438846 270.2071991 29.44485474 C270.20425601 33.878817 270.19497244 38.3127061 270.18089485 42.74664688 C270.15857197 49.80862585 270.15052482 56.87057773 270.14439392 63.93258667 C270.13297908 75.16596816 270.11226139 86.39931003 270.08749622 97.63266933 C270.04354388 117.57308919 270.00958966 137.51351871 269.98725218 157.4539746 C269.97902189 164.41867641 269.96506408 171.38333404 269.94637078 178.34801519 C269.93263948 183.81680416 269.9243675 189.28559227 269.91821289 194.75439453 C269.91673221 195.80216954 269.91525152 196.84994454 269.91372597 197.9294703 C269.90307053 209.88932819 270.00689266 221.83922412 270.2951355 233.7958374 C270.3217884 234.91708901 270.34844131 236.03834061 270.37590188 237.19356954 C270.50687039 242.56651354 270.65297027 247.93849791 270.82143497 253.31039619 C270.87360786 255.21708923 270.92564525 257.12378599 270.9775238 259.03048706 C271.02569624 260.33489089 271.02569624 260.33489089 271.07484186 261.66564631 C271.22616348 267.66075479 271.22616348 267.66075479 269 271 C267.03959119 271.36618346 267.03959119 271.36618346 264.58406639 271.35352612 C263.18299332 271.35726074 263.18299332 271.35726074 261.75361574 271.36107081 C260.72055822 271.34844134 259.68750071 271.33581187 258.62313843 271.32279968 C257.5311211 271.3212794 256.43910377 271.31975913 255.313995 271.31819278 C251.63018979 271.30937604 247.94687124 271.27896684 244.26318359 271.2487793 C241.6323851 271.23807839 239.00158095 271.22869959 236.37077332 271.22055054 C230.69417826 271.2008692 225.01772826 271.17014876 219.34122849 271.13199425 C211.13391392 271.07684476 202.92658768 271.03824469 194.71916349 271.003723 C181.40417451 270.94726689 168.08929119 270.87737027 154.77441406 270.79907227 C141.83791979 270.723028 128.90141694 270.65328208 115.96484375 270.59204102 C115.16784138 270.58826585 114.37083901 270.58449068 113.54968505 270.58060112 C109.55147977 270.56170177 105.55327393 270.5429266 101.55506778 270.52421319 C68.36993279 270.36873103 35.18494722 270.19145779 2 270 C0.86018954 267.72037909 0.87752032 266.48533417 0.8825388 263.95393085 C0.88178114 263.10228393 0.88102349 262.250637 0.88024288 261.37318259 C0.88451997 260.43206679 0.88879705 259.49095099 0.89320374 258.52131653 C0.8940388 257.02779766 0.8940388 257.02779766 0.89489073 255.5041067 C0.89794258 252.14569865 0.90813637 248.78734886 0.91821289 245.42895508 C0.92176696 243.02938397 0.92485351 240.62981214 0.92750549 238.23023987 C0.93407181 233.04975934 0.94356099 227.86929257 0.95540047 222.68882179 C0.97237352 215.18234822 0.9819299 207.67587856 0.9892792 200.16939005 C1.00123785 187.96977428 1.016187 175.77016463 1.03442383 163.57055664 C1.03551395 162.83993107 1.03660407 162.10930549 1.03772723 161.35653975 C1.05330112 151.01313501 1.07188773 140.66973791 1.0917251 130.32634058 C1.09311842 129.59965649 1.09451173 128.8729724 1.09594727 128.12426758 C1.09803756 127.03557595 1.09803756 127.03557595 1.10017008 125.92489056 C1.12327182 113.78729619 1.1385463 101.6497067 1.14750665 89.51209372 C1.15281622 82.70237766 1.16201215 75.89271047 1.18089485 69.08301735 C1.1984485 62.66692892 1.20666372 56.25089523 1.20792198 49.83478355 C1.21005749 47.48835546 1.21560748 45.14192742 1.2249527 42.79551697 C1.68079459 23.59456492 1.68079459 23.59456492 -1.69058132 4.79786396 C-2 3 -2 3 0 0 Z " fill="#FDF1D5" transform="translate(85,82)"/>
<path d="M0 0 C2.9375 0.75 2.9375 0.75 4.9375 2.75 C7.37762949 2.99287489 7.37762949 2.99287489 10.0625 2.875 C11.42761719 2.84792969 11.42761719 2.84792969 12.8203125 2.8203125 C13.51898438 2.79710937 14.21765625 2.77390625 14.9375 2.75 C15.58984375 4.4765625 15.58984375 4.4765625 15.9375 6.75 C14.94140625 8.8984375 14.94140625 8.8984375 13.5 11.125 C11.92612891 13.84148371 10.90708799 15.86930867 10.125 18.9375 C11.25120941 22.83591718 13.43809144 23.90080087 16.7109375 26.1328125 C23.93743414 31.38153111 29.70194615 39.57223073 31.46484375 48.38671875 C31.7070051 50.49982529 31.83470396 52.62554846 31.9375 54.75 C33.86916016 54.73259766 33.86916016 54.73259766 35.83984375 54.71484375 C37.51822772 54.7054673 39.19661326 54.69636695 40.875 54.6875 C41.72513672 54.67912109 42.57527344 54.67074219 43.45117188 54.66210938 C44.26005859 54.65888672 45.06894531 54.65566406 45.90234375 54.65234375 C46.6512085 54.64710693 47.40007324 54.64187012 48.17163086 54.63647461 C49.9375 54.75 49.9375 54.75 50.9375 55.75 C50.80593677 65.53467468 49.19934296 75.13855584 47.5 84.75 C47.06215235 87.27054731 46.62594704 89.79138048 46.19140625 92.3125 C45.97895264 93.53678711 45.76649902 94.76107422 45.54760742 96.02246094 C44.74108467 100.9500277 44.09323188 105.89432166 43.47412109 110.84863281 C42.74600799 114.78534623 41.62601993 116.81706916 38.9375 119.75 C35.0334485 122.352701 31.76949201 122.01578882 27.2434082 121.97705078 C26.3553952 121.97734283 25.4673822 121.97763489 24.55245972 121.97793579 C21.61430118 121.97654132 18.67639554 121.96097457 15.73828125 121.9453125 C13.70232787 121.94158279 11.66637269 121.93873562 9.63041687 121.93673706 C4.26934868 121.92909733 -1.09161131 121.90944587 -6.45263672 121.8873291 C-11.92218563 121.86687803 -17.39175201 121.85773692 -22.86132812 121.84765625 C-33.59509965 121.82620034 -44.32879083 121.79206025 -55.0625 121.75 C-55.35125 122.36875 -55.64 122.9875 -55.9375 123.625 C-57.0625 125.75 -57.0625 125.75 -59.0625 127.75 C-25.4025 128.08 8.2575 128.41 42.9375 128.75 C43.2675 130.07 43.5975 131.39 43.9375 132.75 C41.94133446 134.74616554 38.12048037 134.15983427 35.375 134.3125 C34.66408203 134.35568359 33.95316406 134.39886719 33.22070312 134.44335938 C31.45988088 134.54971777 29.6987168 134.65038846 27.9375 134.75 C28.5871875 135.48347656 29.236875 136.21695313 29.90625 136.97265625 C32.47120305 140.47973628 32.52977712 142.33888167 32.3203125 146.53515625 C31.70876182 150.07341375 30.32534799 152.11079959 27.9375 154.75 C23.571942 157.660372 20.14249921 158.4006249 14.9375 157.75 C10.06796834 155.31523417 7.75040495 152.88656401 5.9375 147.75 C5.40639467 142.70449938 5.92647681 139.84499154 8.9375 135.75 C9.2675 135.42 9.5975 135.09 9.9375 134.75 C-3.5925 134.75 -17.1225 134.75 -31.0625 134.75 C-29.5775 137.225 -29.5775 137.225 -28.0625 139.75 C-27.32272295 143.98558627 -27.59928287 147.68460059 -29.3125 151.625 C-32.39701638 155.37048418 -34.63423819 156.87352443 -39.4375 157.6875 C-43.02473 157.98250247 -44.06284648 157.74982676 -47.4375 156.0625 C-52.8279321 151.31378601 -52.8279321 151.31378601 -53.4609375 147.09375 C-53.45320313 146.1553125 -53.44546875 145.216875 -53.4375 144.25 C-53.44910156 142.84234375 -53.44910156 142.84234375 -53.4609375 141.40625 C-53.0625 138.75 -53.0625 138.75 -50.0625 134.75 C-55.3425 134.42 -60.6225 134.09 -66.0625 133.75 C-66.3925 132.1 -66.7225 130.45 -67.0625 128.75 C-65.43885803 126.99938965 -65.43885803 126.99938965 -63.17602539 125.19335938 C-56.4850396 118.10153195 -58.05544449 108.7932086 -58.24609375 99.65625 C-58.25849212 97.69854541 -58.26747745 95.74081651 -58.27320862 93.78308105 C-58.29796965 88.65351288 -58.37162253 83.52575599 -58.45489502 78.39685059 C-58.51514044 74.19369325 -58.54143376 69.99064362 -58.56587124 65.78714752 C-58.61636757 57.12408033 -58.68863664 48.46103948 -58.82202148 39.79882812 C-58.83099457 38.99369781 -58.83996765 38.1885675 -58.84921265 37.35903931 C-58.5822734 33.75552836 -58.5822734 33.75552836 -60.0625 30.75 C-62.06032126 30.59174742 -64.06338834 30.49880829 -66.06640625 30.43359375 C-67.28134766 30.39169922 -68.49628906 30.34980469 -69.74804688 30.30664062 C-71.02744141 30.26732422 -72.30683594 30.22800781 -73.625 30.1875 C-74.90826172 30.14431641 -76.19152344 30.10113281 -77.51367188 30.05664062 C-80.69649853 29.950152 -83.87940674 29.84814038 -87.0625 29.75 C-87.625 27.8125 -87.625 27.8125 -88.0625 25.75 C-85.44317525 23.13067525 -78.42114376 24.43135954 -74.87158203 24.39990234 C-73.50584827 24.38338529 -72.14019945 24.35615045 -70.77490234 24.31787109 C-68.80359168 24.26288668 -66.83137231 24.24432824 -64.859375 24.2265625 C-63.08578613 24.1968335 -63.08578613 24.1968335 -61.27636719 24.16650391 C-57.04581403 24.93458519 -55.60252626 26.32471937 -53.0625 29.75 C-52.49487305 32.61254883 -52.49487305 32.61254883 -52.57421875 35.70703125 C-52.59033203 36.81884766 -52.60644531 37.93066406 -52.62304688 39.07617188 C-52.68588867 40.8019043 -52.68588867 40.8019043 -52.75 42.5625 C-52.77255859 43.73232422 -52.79511719 44.90214844 -52.81835938 46.10742188 C-52.87716363 48.98883048 -52.96684028 51.86957942 -53.0625 54.75 C-48.1125 54.75 -43.1625 54.75 -38.0625 54.75 C-37.85625 53.326875 -37.65 51.90375 -37.4375 50.4375 C-35.57220788 41.16358283 -30.17593136 30.90109537 -22.1640625 25.4609375 C-21.21660156 24.86152344 -21.21660156 24.86152344 -20.25 24.25 C-17.47086764 22.3478383 -17.1059574 21.86893604 -15.875 18.5 C-16.08868779 14.22624419 -17.3200431 11.61245645 -19.203125 7.83984375 C-20.30276094 5.16572908 -20.09874179 3.42695795 -19.0625 0.75 C-13.4375 0.5 -13.4375 0.5 -10.0625 2.75 C-6.06561431 2.25038929 -4.08945484 -0.33383305 0 0 Z " fill="#0B0D0A" transform="translate(219.0625,148.25)"/>
<path d="M0 0 C32.67 0 65.34 0 99 0 C99 5.81845672 98.96808307 10.31035473 98.01171875 15.84375 C97.801521 17.08278076 97.59132324 18.32181152 97.37475586 19.59838867 C97.14796143 20.88592041 96.92116699 22.17345215 96.6875 23.5 C96.45473364 24.84017676 96.22239564 26.18042798 95.99047852 27.52075195 C95.53493291 30.1505879 95.07599939 32.77975637 94.61523438 35.40869141 C94.08891526 38.48097483 93.59988221 41.55386902 93.140625 44.63671875 C93.01856689 45.42433594 92.89650879 46.21195313 92.77075195 47.0234375 C92.46196988 49.02859818 92.16597872 51.03571726 91.87109375 53.04296875 C91 56 91 56 89.4730835 57.66352844 C85.9104527 59.58879896 82.50645954 59.39384698 78.55957031 59.34057617 C77.71042557 59.34101425 76.86128082 59.34145233 75.98640442 59.34190369 C73.18340964 59.33981588 70.38101512 59.31648524 67.578125 59.29296875 C65.63328376 59.28737277 63.68843829 59.28310268 61.74359131 59.28010559 C56.62742414 59.26865701 51.5115129 59.23918962 46.39544678 59.20599365 C40.25559274 59.16989438 34.11565308 59.15613169 27.97572327 59.13863373 C18.65030424 59.10955238 9.32544664 59.05206515 0 59 C0 39.53 0 20.06 0 0 Z " fill="#F8B51F" transform="translate(166,207)"/>
<path d="M0 0 C2.9375 0.75 2.9375 0.75 4.9375 2.75 C7.37762949 2.99287489 7.37762949 2.99287489 10.0625 2.875 C11.42761719 2.84792969 11.42761719 2.84792969 12.8203125 2.8203125 C13.51898438 2.79710937 14.21765625 2.77390625 14.9375 2.75 C15.58984375 4.4765625 15.58984375 4.4765625 15.9375 6.75 C14.94140625 8.8984375 14.94140625 8.8984375 13.5 11.125 C11.92612891 13.84148371 10.90708799 15.86930867 10.125 18.9375 C11.25120941 22.83591718 13.43809144 23.90080087 16.7109375 26.1328125 C23.33765255 30.94590027 28.31127978 38.01241729 30.9375 45.75 C31.39194304 48.74164508 31.69493071 51.73432925 31.9375 54.75 C27.61427539 54.87400035 23.29200398 54.96452256 18.9675293 55.0246582 C17.49794475 55.04973644 16.02848413 55.08380856 14.55932617 55.12719727 C12.44158319 55.18815499 10.32549424 55.21627316 8.20703125 55.23828125 C6.93448486 55.26446533 5.66193848 55.29064941 4.35083008 55.31762695 C0.03624841 54.60012446 -1.38063677 53.13004836 -4.0625 49.75 C-4.3925 48.76 -4.7225 47.77 -5.0625 46.75 C-4.27875 46.5025 -3.495 46.255 -2.6875 46 C0.26067108 44.59610901 0.8399777 43.74324263 1.9375 40.75 C3.5875 40.75 5.2375 40.75 6.9375 40.75 C6.9375 39.76 6.9375 38.77 6.9375 37.75 C5.2875 37.75 3.6375 37.75 1.9375 37.75 C1.6075 36.76 1.2775 35.77 0.9375 34.75 C1.741875 34.62625 2.54625 34.5025 3.375 34.375 C4.220625 34.16875 5.06625 33.9625 5.9375 33.75 C6.4325 32.76 6.4325 32.76 6.9375 31.75 C0.6675 32.08 -5.6025 32.41 -12.0625 32.75 C-12.3925 33.41 -12.7225 34.07 -13.0625 34.75 C-11.391875 34.7190625 -11.391875 34.7190625 -9.6875 34.6875 C-6.0625 34.75 -6.0625 34.75 -4.0625 35.75 C-4.0625 36.41 -4.0625 37.07 -4.0625 37.75 C-7.13867188 38.04296875 -7.13867188 38.04296875 -10.21484375 38.3359375 C-11.12943359 38.54089844 -11.12943359 38.54089844 -12.0625 38.75 C-12.3925 39.41 -12.7225 40.07 -13.0625 40.75 C-9.7625 40.75 -6.4625 40.75 -3.0625 40.75 C-3.7225 42.07 -4.3825 43.39 -5.0625 44.75 C-7.3725 44.75 -9.6825 44.75 -12.0625 44.75 C-9.95471806 48.43861839 -7.76452106 51.37247368 -5.0625 54.75 C-15.9525 54.75 -26.8425 54.75 -38.0625 54.75 C-35.86344308 43.75471541 -31.97744242 32.12434362 -22.1640625 25.4609375 C-21.53242188 25.06132812 -20.90078125 24.66171875 -20.25 24.25 C-17.47086764 22.3478383 -17.1059574 21.86893604 -15.875 18.5 C-16.08868779 14.22624419 -17.3200431 11.61245645 -19.203125 7.83984375 C-20.30276094 5.16572908 -20.09874179 3.42695795 -19.0625 0.75 C-13.4375 0.5 -13.4375 0.5 -10.0625 2.75 C-6.06561431 2.25038929 -4.08945484 -0.33383305 0 0 Z " fill="#A27234" transform="translate(219.0625,148.25)"/>
<path d="M0 0 C1.36573376 -0.01651706 2.73138258 -0.04375189 4.09667969 -0.08203125 C6.06799035 -0.13701566 8.04020972 -0.1555741 10.01220703 -0.17333984 C11.7857959 -0.20306885 11.7857959 -0.20306885 13.59521484 -0.23339844 C17.825768 0.53468285 19.26905577 1.92481703 21.80908203 5.35009766 C22.37670898 8.21264648 22.37670898 8.21264648 22.29736328 11.30712891 C22.28487549 12.30977783 22.2723877 13.31242676 22.25952148 14.34545898 C22.21400146 15.60511475 22.16848145 16.86477051 22.12158203 18.16259766 C22.01845703 22.18447266 21.91533203 26.20634766 21.80908203 30.35009766 C37.31908203 30.02009766 52.82908203 29.69009766 68.80908203 29.35009766 C66.82908203 27.37009766 64.84908203 25.39009766 62.80908203 23.35009766 C62.80908203 22.36009766 62.80908203 21.37009766 62.80908203 20.35009766 C63.92283203 20.24697266 65.03658203 20.14384766 66.18408203 20.03759766 C67.38033203 19.81072266 68.57658203 19.58384766 69.80908203 19.35009766 C70.79908203 17.86509766 70.79908203 17.86509766 71.80908203 16.35009766 C68.50908203 16.35009766 65.20908203 16.35009766 61.80908203 16.35009766 C62.13908203 15.36009766 62.46908203 14.37009766 62.80908203 13.35009766 C65.44908203 13.35009766 68.08908203 13.35009766 70.80908203 13.35009766 C70.80908203 12.69009766 70.80908203 12.03009766 70.80908203 11.35009766 C67.83908203 11.02009766 64.86908203 10.69009766 61.80908203 10.35009766 C62.13908203 9.36009766 62.46908203 8.37009766 62.80908203 7.35009766 C69.07908203 7.35009766 75.34908203 7.35009766 81.80908203 7.35009766 C81.47908203 8.34009766 81.14908203 9.33009766 80.80908203 10.35009766 C79.15908203 10.35009766 77.50908203 10.35009766 75.80908203 10.35009766 C76.30408203 11.34009766 76.30408203 11.34009766 76.80908203 12.35009766 C79.33641438 13.00564885 79.33641438 13.00564885 81.80908203 13.35009766 C81.80908203 14.34009766 81.80908203 15.33009766 81.80908203 16.35009766 C80.15908203 16.35009766 78.50908203 16.35009766 76.80908203 16.35009766 C76.68533203 16.96884766 76.56158203 17.58759766 76.43408203 18.22509766 C75.80908203 20.35009766 75.80908203 20.35009766 73.80908203 22.35009766 C72.48908203 22.35009766 71.16908203 22.35009766 69.80908203 22.35009766 C70.61345703 23.11322266 71.41783203 23.87634766 72.24658203 24.66259766 C74.80908203 27.35009766 74.80908203 27.35009766 75.80908203 30.35009766 C76.42073715 30.34787704 77.03239227 30.34565643 77.6625824 30.34336853 C84.00478534 30.32131644 90.34697747 30.30619138 96.68920898 30.29516602 C99.05900515 30.29012424 101.42879818 30.28329101 103.79858398 30.2746582 C107.19662242 30.26258576 110.59461988 30.25686795 113.99267578 30.25244141 C115.05932968 30.24728012 116.12598358 30.24211884 117.22496033 30.23680115 C118.6963723 30.23668785 118.6963723 30.23668785 120.19750977 30.23657227 C121.06576889 30.23435165 121.93402802 30.23213104 122.82859802 30.22984314 C124.80908203 30.35009766 124.80908203 30.35009766 125.80908203 31.35009766 C125.67751881 41.13477234 124.07092499 50.7386535 122.37158203 60.35009766 C121.93373438 62.87064497 121.49752907 65.39147814 121.06298828 67.91259766 C120.8504541 69.13696533 120.63791992 70.36133301 120.41894531 71.62280273 C119.61306249 76.54810818 118.96786444 81.49029189 118.35180664 86.44262695 C117.62247657 90.34977576 116.47194804 92.43758796 113.80908203 95.35009766 C112.81908203 95.84509766 112.81908203 95.84509766 111.80908203 96.35009766 C111.47908203 95.69009766 111.14908203 95.03009766 110.80908203 94.35009766 C81.76908203 94.35009766 52.72908203 94.35009766 22.80908203 94.35009766 C22.80908203 94.02009766 22.80908203 93.69009766 22.80908203 93.35009766 C23.87983475 93.3420108 24.95058746 93.33392395 26.05378723 93.32559204 C36.1335187 93.2481832 46.21311432 93.16045731 56.29266834 93.06257057 C61.47495141 93.01257649 66.65721379 92.96624673 71.83959961 92.92822266 C76.83877179 92.89140917 81.83777212 92.84505998 86.83679771 92.79203415 C88.74618204 92.77346924 90.65560324 92.75836907 92.5650425 92.74675369 C95.23486643 92.72992708 97.90429496 92.70090093 100.57397461 92.66894531 C101.36735229 92.66678513 102.16072998 92.66462494 102.97814941 92.66239929 C106.77938976 92.60408862 108.56967704 92.50970099 111.80908203 90.35009766 C112.67840686 87.34523307 112.67840686 87.34523307 113.18408203 83.60009766 C113.42873138 82.07403317 113.67353626 80.54799361 113.91845703 79.02197266 C114.05445313 78.14605469 114.19044922 77.27013672 114.33056641 76.36767578 C114.88640858 72.86246696 115.47900462 69.36437603 116.07470703 65.86572266 C116.52830825 63.19392834 116.98121847 60.52201709 117.43408203 57.85009766 C117.65241699 56.56264648 117.87075195 55.27519531 118.09570312 53.94873047 C118.30275879 52.70961914 118.50981445 51.47050781 118.72314453 50.19384766 C118.90828613 49.09234375 119.09342773 47.99083984 119.28417969 46.85595703 C119.90600327 42.70275392 120.34532536 38.52390771 120.80908203 34.35009766 C88.13908203 34.35009766 55.46908203 34.35009766 21.80908203 34.35009766 C21.80908203 53.82009766 21.80908203 73.29009766 21.80908203 93.35009766 C20.81908203 93.35009766 19.82908203 93.35009766 18.80908203 93.35009766 C18.47908203 94.34009766 18.14908203 95.33009766 17.80908203 96.35009766 C17.47908203 96.35009766 17.14908203 96.35009766 16.80908203 96.35009766 C16.79362083 94.6809304 16.79362083 94.6809304 16.77784729 92.9780426 C16.68028957 82.51511848 16.5775727 72.05225617 16.46974277 61.58943272 C16.41446765 56.20978962 16.36104045 50.83014114 16.31176758 45.45043945 C16.26419155 40.26330095 16.21185147 35.07623081 16.15614128 29.88917351 C16.13568698 27.9055545 16.11697911 25.92191672 16.10000801 23.93826485 C16.07603181 21.1699555 16.04596839 18.40177664 16.0144043 15.63354492 C16.0057711 14.39061424 16.0057711 14.39061424 15.9969635 13.12257385 C16.29709547 9.43345862 16.29709547 9.43345862 14.80908203 6.35009766 C12.81126077 6.19184507 10.80819369 6.09890594 8.80517578 6.03369141 C7.59023437 5.99179688 6.37529297 5.94990234 5.12353516 5.90673828 C3.84414062 5.86742187 2.56474609 5.82810547 1.24658203 5.78759766 C-0.03667969 5.74441406 -1.31994141 5.70123047 -2.64208984 5.65673828 C-5.8249165 5.55024966 -9.00782471 5.44823804 -12.19091797 5.35009766 C-12.75341797 3.41259766 -12.75341797 3.41259766 -13.19091797 1.35009766 C-10.57159322 -1.26922709 -3.54956172 0.03145719 0 0 Z " fill="#140D04" transform="translate(144.19091796875,172.64990234375)"/>
<path d="M0 0 C1.06154297 -0.02054443 2.12308594 -0.04108887 3.21679688 -0.06225586 C10.73936117 0.15492327 10.73936117 0.15492327 13.83349609 2.62768555 C15.40625 4.5078125 15.40625 4.5078125 16.65039062 6.37939453 C18.51974812 8.94864306 20.99348318 9.89617176 23.875 11.0625 C23.215 11.3925 22.555 11.7225 21.875 12.0625 C21.875 14.0425 21.875 16.0225 21.875 18.0625 C20.885 18.3925 19.895 18.7225 18.875 19.0625 C18.545 25.0025 18.215 30.9425 17.875 37.0625 C18.535 37.0625 19.195 37.0625 19.875 37.0625 C19.875 37.7225 19.875 38.3825 19.875 39.0625 C6.675 39.0625 -6.525 39.0625 -20.125 39.0625 C-20.125 38.4025 -20.125 37.7425 -20.125 37.0625 C-19.465 37.0625 -18.805 37.0625 -18.125 37.0625 C-18.269375 35.77214844 -18.41375 34.48179687 -18.5625 33.15234375 C-18.75019688 31.43491734 -18.93768586 29.7174682 -19.125 28 C-19.22039062 27.15244141 -19.31578125 26.30488281 -19.4140625 25.43164062 C-20.9725584 11.01555359 -20.9725584 11.01555359 -17.625 5.625 C-12.78844411 -0.12610464 -7.04153724 0.07094086 0 0 Z " fill="#D7A739" transform="translate(212.125,217.9375)"/>
<path d="M0 0 C2.9375 0.75 2.9375 0.75 4.9375 2.75 C7.37762949 2.99287489 7.37762949 2.99287489 10.0625 2.875 C11.42761719 2.84792969 11.42761719 2.84792969 12.8203125 2.8203125 C13.51898438 2.79710937 14.21765625 2.77390625 14.9375 2.75 C15.58984375 4.4765625 15.58984375 4.4765625 15.9375 6.75 C14.94140625 8.8984375 14.94140625 8.8984375 13.5 11.125 C11.92612891 13.84148371 10.90708799 15.86930867 10.125 18.9375 C11.25120941 22.83591718 13.43809144 23.90080087 16.7109375 26.1328125 C23.93743414 31.38153111 29.70194615 39.57223073 31.46484375 48.38671875 C31.7070051 50.49982529 31.83470396 52.62554846 31.9375 54.75 C30.9475 54.75 29.9575 54.75 28.9375 54.75 C28.64359375 53.53376953 28.64359375 53.53376953 28.34375 52.29296875 C25.14275185 40.44099714 19.53585193 31.26823522 8.9375 24.75 C5.35242719 22.9574636 1.26183637 23.39442472 -2.6875 23.3125 C-3.56535156 23.26673828 -4.44320312 23.22097656 -5.34765625 23.17382812 C-13.58193793 23.03312346 -17.46483143 26.34645024 -23.234375 31.8046875 C-29.03283302 38.49300789 -32.10723242 45.47525077 -35.0625 53.75 C-35.7225 53.75 -36.3825 53.75 -37.0625 53.75 C-36.73191109 43.66703835 -32.32695751 35.68247637 -25.6484375 28.2265625 C-23.9564073 26.65122404 -22.20134403 25.48452377 -20.25 24.25 C-17.47086764 22.3478383 -17.1059574 21.86893604 -15.875 18.5 C-16.08868779 14.22624419 -17.3200431 11.61245645 -19.203125 7.83984375 C-20.30276094 5.16572908 -20.09874179 3.42695795 -19.0625 0.75 C-13.4375 0.5 -13.4375 0.5 -10.0625 2.75 C-6.06561431 2.25038929 -4.08945484 -0.33383305 0 0 Z " fill="#492A08" transform="translate(219.0625,148.25)"/>
<path d="M0 0 C30.69 0 61.38 0 93 0 C92.67 1.32 92.34 2.64 92 4 C61.97 4 31.94 4 1 4 C0.34 5.32 -0.32 6.64 -1 8 C-1.66 8.66 -2.32 9.32 -3 10 C0.96 10.33 4.92 10.66 9 11 C9 11.33 9 11.66 9 12 C8.08476562 12.06058594 7.16953125 12.12117188 6.2265625 12.18359375 C5.03804687 12.26738281 3.84953125 12.35117187 2.625 12.4375 C0.84996094 12.55931641 0.84996094 12.55931641 -0.9609375 12.68359375 C-3.91518901 12.81084936 -3.91518901 12.81084936 -6 14 C-4.39318359 14.07347656 -4.39318359 14.07347656 -2.75390625 14.1484375 C-1.35674361 14.22345294 0.0403905 14.2990013 1.4375 14.375 C2.14455078 14.4059375 2.85160156 14.436875 3.58007812 14.46875 C5.39239188 14.57280629 7.19817988 14.77919892 9 15 C9.33 15.66 9.66 16.32 10 17 C11.03125 16.896875 12.0625 16.79375 13.125 16.6875 C18.19970101 17.09675008 19.46272683 18.46272683 23 22 C24.40457737 24.80915474 24.24895157 26.88810534 24 30 C22.625 32.375 22.625 32.375 21 34 C20.34 34 19.68 34 19 34 C18.67 34.99 18.34 35.98 18 37 C16.35 37 14.7 37 13 37 C14.65 37.66 16.3 38.32 18 39 C18 39.33 18 39.66 18 40 C12.69356959 40.50537432 10.13319688 39.30655751 6 36 C3.10878643 32.85589068 2.59002683 30.74341102 2.625 26.5 C2.61726562 25.5615625 2.60953125 24.623125 2.6015625 23.65625 C3 21 3 21 6 17 C0.72 16.67 -4.56 16.34 -10 16 C-11 11 -11 11 -9.41796875 8.54296875 C-8.31388672 7.37701172 -8.31388672 7.37701172 -7.1875 6.1875 C-6.09501953 5.00220703 -6.09501953 5.00220703 -4.98046875 3.79296875 C-3 2 -3 2 -1 2 C-0.67 1.34 -0.34 0.68 0 0 Z " fill="#151612" transform="translate(163,266)"/>
<path d="M0 0 C1.36573376 -0.01651706 2.73138258 -0.04375189 4.09667969 -0.08203125 C6.06799035 -0.13701566 8.04020972 -0.1555741 10.01220703 -0.17333984 C11.7857959 -0.20306885 11.7857959 -0.20306885 13.59521484 -0.23339844 C17.84451039 0.53808564 19.26816547 1.89654686 21.80908203 5.35009766 C22.46850586 8.48803711 22.46850586 8.48803711 22.51611328 11.96337891 C22.54511719 13.21054688 22.57412109 14.45771484 22.60400391 15.74267578 C22.60980469 17.03625 22.61560547 18.32982422 22.62158203 19.66259766 C22.64671875 20.97550781 22.67185547 22.28841797 22.69775391 23.64111328 C22.75660171 26.87774255 22.7929014 30.11301984 22.80908203 33.35009766 C23.81841797 33.31456787 24.82775391 33.27903809 25.86767578 33.24243164 C57.87564696 32.1537396 89.79714627 32.57110908 121.80908203 33.35009766 C121.80908203 35.00009766 121.80908203 36.65009766 121.80908203 38.35009766 C121.47908203 37.03009766 121.14908203 35.71009766 120.80908203 34.35009766 C88.13908203 34.35009766 55.46908203 34.35009766 21.80908203 34.35009766 C21.80908203 53.82009766 21.80908203 73.29009766 21.80908203 93.35009766 C20.81908203 93.35009766 19.82908203 93.35009766 18.80908203 93.35009766 C18.47908203 94.34009766 18.14908203 95.33009766 17.80908203 96.35009766 C17.47908203 96.35009766 17.14908203 96.35009766 16.80908203 96.35009766 C16.79362083 94.6809304 16.79362083 94.6809304 16.77784729 92.9780426 C16.68028957 82.51511848 16.5775727 72.05225617 16.46974277 61.58943272 C16.41446765 56.20978962 16.36104045 50.83014114 16.31176758 45.45043945 C16.26419155 40.26330095 16.21185147 35.07623081 16.15614128 29.88917351 C16.13568698 27.9055545 16.11697911 25.92191672 16.10000801 23.93826485 C16.07603181 21.1699555 16.04596839 18.40177664 16.0144043 15.63354492 C16.0057711 14.39061424 16.0057711 14.39061424 15.9969635 13.12257385 C16.29709547 9.43345862 16.29709547 9.43345862 14.80908203 6.35009766 C12.81126077 6.19184507 10.80819369 6.09890594 8.80517578 6.03369141 C7.59023437 5.99179688 6.37529297 5.94990234 5.12353516 5.90673828 C3.84414062 5.86742187 2.56474609 5.82810547 1.24658203 5.78759766 C-0.03667969 5.74441406 -1.31994141 5.70123047 -2.64208984 5.65673828 C-5.8249165 5.55024966 -9.00782471 5.44823804 -12.19091797 5.35009766 C-12.75341797 3.41259766 -12.75341797 3.41259766 -13.19091797 1.35009766 C-10.57159322 -1.26922709 -3.54956172 0.03145719 0 0 Z " fill="#1C1705" transform="translate(144.19091796875,172.64990234375)"/>
<path d="M0 0 C2.6875 0.875 2.6875 0.875 5 2 C4.01 2.33 3.02 2.66 2 3 C1.67 3.99 1.34 4.98 1 6 C0.34 6 -0.32 6 -1 6 C-1 6.66 -1 7.32 -1 8 C0.32 8.66 1.64 9.32 3 10 C-30.66 10 -64.32 10 -99 10 C-94 3 -94 3 -89.96420288 2.13371277 C-88.35193228 2.10192494 -86.73862649 2.108361 -85.12646484 2.14526367 C-84.24297867 2.1377005 -83.35949249 2.13013733 -82.44923401 2.12234497 C-79.53554548 2.10516593 -76.62447458 2.13674314 -73.7109375 2.16796875 C-71.68501831 2.16366156 -69.65910371 2.15598996 -67.63320923 2.14509583 C-62.30427742 2.1241723 -56.97626528 2.1432378 -51.6473999 2.17236328 C-43.11113875 2.21184837 -34.57479161 2.18885565 -26.03850174 2.16936684 C-23.05419215 2.16798301 -20.07028359 2.18239474 -17.08602905 2.19950867 C-15.26226847 2.20251508 -13.43850746 2.20527994 -11.61474609 2.20776367 C-10.78246994 2.2166008 -9.95019379 2.22543793 -9.09269714 2.23454285 C-5.19912 2.22919527 -3.31635367 2.21090245 0 0 Z " fill="#F3E6CB" transform="translate(258,267)"/>
<path d="M0 0 C0 0.99 0 1.98 0 3 C0.68707031 2.89300781 1.37414062 2.78601563 2.08203125 2.67578125 C2.98308594 2.55589844 3.88414062 2.43601562 4.8125 2.3125 C6.15248047 2.12107422 6.15248047 2.12107422 7.51953125 1.92578125 C10 2 10 2 11.82421875 3.48046875 C12.40623047 4.23263672 12.40623047 4.23263672 13 5 C13 4.34 13 3.68 13 3 C12.34 2.67 11.68 2.34 11 2 C12 1 12 1 13.76586914 0.88647461 C14.51473389 0.89171143 15.26359863 0.89694824 16.03515625 0.90234375 C16.84404297 0.90556641 17.65292969 0.90878906 18.48632812 0.91210938 C19.33646484 0.92048828 20.18660156 0.92886719 21.0625 0.9375 C21.91650391 0.94201172 22.77050781 0.94652344 23.65039062 0.95117188 C25.76695663 0.96299627 27.88348685 0.98093231 30 1 C30 1.33 30 1.66 30 2 C25.05 2.33 20.1 2.66 15 3 C16.32 4.65 17.64 6.3 19 8 C20.07466979 12.54364067 19.37946306 16.21188442 17.375 20.375 C13.78174634 24.34649089 10.79988182 25.77501477 5.5 26.4375 C1.23494 25.9043675 -0.75593838 24.80168958 -4 22 C-6.9156441 17.62653385 -7.56872801 14.21334006 -7 9 C-5.84360194 6.68720389 -4.82590172 4.82590172 -3 3 C-17.19 3 -31.38 3 -46 3 C-46 2.34 -46 1.68 -46 1 C-39.77035229 0.85726712 -33.54069659 0.71488649 -27.31103516 0.57275391 C-25.19059058 0.52433303 -23.07014786 0.4758307 -20.94970703 0.42724609 C-17.90658034 0.35753445 -14.86344715 0.28811314 -11.8203125 0.21875 C-10.86818878 0.19687622 -9.91606506 0.17500244 -8.93508911 0.15246582 C-8.05432709 0.13244507 -7.17356506 0.11242432 -6.26611328 0.09179688 C-5.48889923 0.07403198 -4.71168518 0.05626709 -3.91091919 0.03796387 C-2.60747524 0.01206859 -1.30370115 0 0 0 Z " fill="#2E210B" transform="translate(232,280)"/>
<path d="M0 0 C32.67 0 65.34 0 99 0 C99 10.125 99 10.125 98.34375 13.59765625 C98.20839844 14.33564453 98.07304687 15.07363281 97.93359375 15.83398438 C97.79050781 16.56939453 97.64742188 17.30480469 97.5 18.0625 C97.35691406 18.83271484 97.21382813 19.60292969 97.06640625 20.39648438 C96.71811011 22.26567368 96.36010078 24.13304894 96 26 C95.67 26 95.34 26 95 26 C94.97314062 23.85423363 94.95366912 21.70837355 94.9375 19.5625 C94.92589844 18.36753906 94.91429687 17.17257813 94.90234375 15.94140625 C95 13 95 13 96 12 C96.33 8.7 96.66 5.4 97 2 C65.32 2 33.64 2 1 2 C1 20.48 1 38.96 1 58 C29.38 58 57.76 58 87 58 C87 58.33 87 58.66 87 59 C58.29 59 29.58 59 0 59 C0 39.53 0 20.06 0 0 Z " fill="#C89E32" transform="translate(166,207)"/>
<path d="M0 0 C0.99 0 1.98 0 3 0 C3 5.28 3 10.56 3 16 C3.99 16 4.98 16 6 16 C6 11.05 6 6.1 6 1 C9.96 1 13.92 1 18 1 C18 5.95 18 10.9 18 16 C22.95 16 27.9 16 33 16 C33 10.72 33 5.44 33 0 C33.99 0 34.98 0 36 0 C36 5.28 36 10.56 36 16 C36.66 16 37.32 16 38 16 C38 16.66 38 17.32 38 18 C24.8 18 11.6 18 -2 18 C-2 17.34 -2 16.68 -2 16 C-1.34 16 -0.68 16 0 16 C0 10.72 0 5.44 0 0 Z " fill="#140100" transform="translate(194,239)"/>
<path d="M0 0 C0.96357422 -0.03544922 1.92714844 -0.07089844 2.91992188 -0.10742188 C7.09121792 -0.08176113 9.94546653 0.10348334 13.34814453 2.64404297 C15.26461321 4.69078017 16.81608229 6.42281804 18.0625 8.9375 C17.73413086 11.19946289 17.73413086 11.19946289 17.0625 12.9375 C15.1875 13.5625 15.1875 13.5625 13.0625 13.9375 C12.4025 13.2775 11.7425 12.6175 11.0625 11.9375 C11.0625 10.9475 11.0625 9.9575 11.0625 8.9375 C10.0725 8.9375 9.0825 8.9375 8.0625 8.9375 C7.959375 9.576875 7.85625 10.21625 7.75 10.875 C7.523125 11.555625 7.29625 12.23625 7.0625 12.9375 C6.0725 13.2675 5.0825 13.5975 4.0625 13.9375 C2.0625 12.9375 2.0625 12.9375 1.0625 9.9375 C0.4025 9.6075 -0.2575 9.2775 -0.9375 8.9375 C-1.2675 10.2575 -1.5975 11.5775 -1.9375 12.9375 C-3.8125 13.5625 -3.8125 13.5625 -5.9375 13.9375 C-6.5975 13.2775 -7.2575 12.6175 -7.9375 11.9375 C-7.9375 10.9475 -7.9375 9.9575 -7.9375 8.9375 C-8.9275 9.4325 -8.9275 9.4325 -9.9375 9.9375 C-10.2675 10.9275 -10.5975 11.9175 -10.9375 12.9375 C-12.59364657 13.31968767 -14.26207024 13.65145102 -15.9375 13.9375 C-16.9375 12.9375 -16.9375 12.9375 -17.375 10.8125 C-15.91558799 1.2220782 -8.39797535 -0.19582221 0 0 Z " fill="#F9B523" transform="translate(211.9375,221.0625)"/>
<path d="M0 0 C1.36573376 -0.01651706 2.73138258 -0.04375189 4.09667969 -0.08203125 C6.06799035 -0.13701566 8.04020972 -0.1555741 10.01220703 -0.17333984 C11.7857959 -0.20306885 11.7857959 -0.20306885 13.59521484 -0.23339844 C17.825768 0.53468285 19.26905577 1.92481703 21.80908203 5.35009766 C22.37670898 8.21264648 22.37670898 8.21264648 22.29736328 11.30712891 C22.28125 12.41894531 22.26513672 13.53076172 22.24853516 14.67626953 C22.18569336 16.40200195 22.18569336 16.40200195 22.12158203 18.16259766 C22.09902344 19.33242187 22.07646484 20.50224609 22.05322266 21.70751953 C21.99440295 24.58968535 21.91225344 27.46923447 21.80908203 30.35009766 C20.81908203 29.03009766 19.82908203 27.71009766 18.80908203 26.35009766 C18.47908203 46.81009766 18.14908203 67.27009766 17.80908203 88.35009766 C17.47908203 88.35009766 17.14908203 88.35009766 16.80908203 88.35009766 C16.79877457 87.3375441 16.7884671 86.32499054 16.77784729 85.28175354 C16.68028468 75.76065761 16.57756732 66.23962955 16.46974277 56.71864414 C16.41447038 51.82327641 16.36104362 46.92790276 16.31176758 42.0324707 C16.26418752 37.31216489 16.21184728 32.59193412 16.15614128 27.87171745 C16.13568881 26.06672968 16.11698062 24.26172131 16.10000801 22.45669746 C16.07602774 19.93744549 16.04596492 17.41833668 16.0144043 14.89916992 C16.0057711 13.7684481 16.0057711 13.7684481 15.9969635 12.61488342 C16.25051073 9.19307844 16.25051073 9.19307844 14.80908203 6.35009766 C12.81126077 6.19184507 10.80819369 6.09890594 8.80517578 6.03369141 C7.59023437 5.99179688 6.37529297 5.94990234 5.12353516 5.90673828 C3.84414062 5.86742187 2.56474609 5.82810547 1.24658203 5.78759766 C-0.03667969 5.74441406 -1.31994141 5.70123047 -2.64208984 5.65673828 C-5.8249165 5.55024966 -9.00782471 5.44823804 -12.19091797 5.35009766 C-12.75341797 3.41259766 -12.75341797 3.41259766 -13.19091797 1.35009766 C-10.57159322 -1.26922709 -3.54956172 0.03145719 0 0 Z " fill="#1B1C12" transform="translate(144.19091796875,172.64990234375)"/>
<path d="M0 0 C3.25852522 1.83814243 4.83920997 3.74329991 6.125 7.25 C6.52572101 9.97490287 6.49999257 12.62532701 6.4375 15.375 C8.4175 15.045 10.3975 14.715 12.4375 14.375 C12.7675 12.725 13.0975 11.075 13.4375 9.375 C16.0775 9.045 18.7175 8.715 21.4375 8.375 C21.4375 9.035 21.4375 9.695 21.4375 10.375 C22.4275 10.705 23.4175 11.035 24.4375 11.375 C24.4375 13.355 24.4375 15.335 24.4375 17.375 C23.4475 17.705 22.4575 18.035 21.4375 18.375 C21.4375 19.035 21.4375 19.695 21.4375 20.375 C20.509375 20.2925 19.58125 20.21 18.625 20.125 C15.34644778 20.02196955 15.34644778 20.02196955 13.5625 22.375 C13.19125 23.035 12.82 23.695 12.4375 24.375 C11.7775 23.715 11.1175 23.055 10.4375 22.375 C10.8125 19.75 10.8125 19.75 11.4375 17.375 C10.42429688 17.42720703 10.42429688 17.42720703 9.390625 17.48046875 C8.49859375 17.50753906 7.6065625 17.53460938 6.6875 17.5625 C5.36492187 17.61470703 5.36492187 17.61470703 4.015625 17.66796875 C0.96848351 17.32170267 -0.21633224 16.26594118 -2.5625 14.375 C-6.06860679 14.6315444 -7.5903901 15.3935934 -10.5625 17.375 C-13.25 17 -13.25 17 -15.5625 16.375 C-12.9666044 13.50097273 -11.34880702 12.13067052 -7.5625 11.375 C-7.53671875 10.67632812 -7.5109375 9.97765625 -7.484375 9.2578125 C-7.42765625 8.34773437 -7.3709375 7.43765625 -7.3125 6.5 C-7.24289063 5.14261719 -7.24289063 5.14261719 -7.171875 3.7578125 C-6.5625 1.375 -6.5625 1.375 -4.67578125 0.015625 C-2.5625 -0.625 -2.5625 -0.625 0 0 Z " fill="#FAE9BE" transform="translate(222.5625,134.625)"/>
<path d="M0 0 C4.06762921 5.30560331 4.06762921 5.30560331 3.6862793 9.22119141 C3.48905245 10.59897133 3.28450538 11.97571532 3.07421875 13.3515625 C2.96656693 14.08442474 2.8589151 14.81728699 2.7480011 15.57235718 C2.51805375 17.12795319 2.28498796 18.6830909 2.04907227 20.23779297 C1.69224941 22.59364298 1.34628958 24.95089015 1.00195312 27.30859375 C0.77669409 28.82301385 0.55080191 30.33733994 0.32421875 31.8515625 C0.22203537 32.5477066 0.11985199 33.24385071 0.01457214 33.96109009 C-2.14657053 48.07079623 -2.14657053 48.07079623 -8 53 C-8.33 52.34 -8.66 51.68 -9 51 C-38.04 51 -67.08 51 -97 51 C-97 50.67 -97 50.34 -97 50 C-95.39387093 49.98786972 -95.39387093 49.98786972 -93.7552948 49.97549438 C-83.67556333 49.89808555 -73.59596771 49.81035966 -63.51641369 49.71247292 C-58.33413062 49.66247883 -53.15186824 49.61614908 -47.96948242 49.578125 C-42.97031024 49.54131151 -37.97130991 49.49496233 -32.97228432 49.44193649 C-31.06289999 49.42337159 -29.15347879 49.40827142 -27.24403954 49.39665604 C-24.5742156 49.37982942 -21.90478707 49.35080327 -19.23510742 49.31884766 C-18.44172974 49.31668747 -17.64835205 49.31452728 -16.83093262 49.31230164 C-13.02969227 49.25399096 -11.239405 49.15960333 -8 47 C-7.13067517 43.99513541 -7.13067517 43.99513541 -6.625 40.25 C-6.38154919 38.73567085 -6.13805591 37.22134853 -5.89453125 35.70703125 C-5.69077881 34.39532959 -5.69077881 34.39532959 -5.48291016 33.05712891 C-4.9105997 29.43403916 -4.30703162 25.81647934 -3.69921875 22.19921875 C-3.46858636 20.8258465 -3.23795485 19.45247411 -3.00732422 18.07910156 C-2.89257751 17.39593872 -2.77783081 16.71277588 -2.65960693 16.00891113 C-1.76560952 10.67385151 -0.88377795 5.33676003 0 0 Z " fill="#1C1508" transform="translate(264,216)"/>
<path d="M0 0 C1.61261719 0.02586182 1.61261719 0.02586182 3.2578125 0.05224609 C9.12377057 0.33814842 13.36198972 0.69729935 17.5625 5.1875 C20.07655553 8.84766908 20.40397064 11.66606548 20.0625 16.0625 C19.0625 18 19.0625 18 17.0625 19.0625 C14.3401554 18.94770234 11.76125261 18.49778268 9.0625 18.0625 C8.7325 18.3925 8.4025 18.7225 8.0625 19.0625 C2.53308824 19.29779412 2.53308824 19.29779412 0.0625 18.0625 C-2.27496522 18.36550475 -4.60835177 18.70108045 -6.9375 19.0625 C-8.2575 19.0625 -9.5775 19.0625 -10.9375 19.0625 C-11.948125 19.124375 -12.95875 19.18625 -14 19.25 C-16.9375 19.0625 -16.9375 19.0625 -18.875 18 C-19.9375 16.0625 -19.9375 16.0625 -20.0625 12.875 C-16.93225852 2.26695945 -10.45730988 -0.32479099 0 0 Z M-15.97509766 9.27294922 C-17.24775379 11.6394052 -17.41594969 13.43102669 -16.9375 16.0625 C-13.88836772 17.07361093 -13.88836772 17.07361093 -10.9375 16.0625 C-10.6075 15.0725 -10.2775 14.0825 -9.9375 13.0625 C-9.2775 12.7325 -8.6175 12.4025 -7.9375 12.0625 C-7.6075 13.3825 -7.2775 14.7025 -6.9375 16.0625 C-5.04570797 16.7439823 -5.04570797 16.7439823 -2.9375 17.0625 C-2.2775 16.4025 -1.6175 15.7425 -0.9375 15.0625 C-0.9375 14.0725 -0.9375 13.0825 -0.9375 12.0625 C-0.2775 12.3925 0.3825 12.7225 1.0625 13.0625 C1.3925 14.0525 1.7225 15.0425 2.0625 16.0625 C3.96958843 16.97678339 3.96958843 16.97678339 6.0625 17.0625 C6.7225 16.4025 7.3825 15.7425 8.0625 15.0625 C8.0625 14.0725 8.0625 13.0825 8.0625 12.0625 C9.0525 12.0625 10.0425 12.0625 11.0625 12.0625 C11.3925 13.3825 11.7225 14.7025 12.0625 16.0625 C13.95429203 16.7439823 13.95429203 16.7439823 16.0625 17.0625 C16.7225 16.4025 17.3825 15.7425 18.0625 15.0625 C18.0625 11.39919697 16.9195283 9.87461449 14.6875 6.94140625 C11.11353289 3.48578949 7.84900273 3.25601783 3.0078125 3.19335938 C2.03585938 3.21205078 1.06390625 3.23074219 0.0625 3.25 C-0.90945312 3.21841797 -1.88140625 3.18683594 -2.8828125 3.15429688 C-9.15584836 3.18420917 -12.18532151 4.1871316 -15.97509766 9.27294922 Z " fill="#2B1601" transform="translate(211.9375,217.9375)"/>
<path d="M0 0 C0.66 0.33 1.32 0.66 2 1 C2.12074853 7.42650535 1.90984106 13.63111261 1 20 C0 21 0 21 -3.59765625 21.09765625 C-5.08596867 21.0909822 -6.57426432 21.07902183 -8.0625 21.0625 C-8.82111328 21.05798828 -9.57972656 21.05347656 -10.36132812 21.04882812 C-12.24091871 21.0370068 -14.12046899 21.01907078 -16 21 C-15.09068323 12.05838509 -15.09068323 12.05838509 -13 8 C-12.34 7.67 -11.68 7.34 -11 7 C-9.9590934 5.35857037 -8.95495674 3.69287785 -8 2 C-5 3 -5 3 -3 5 C-2.690625 4.360625 -2.38125 3.72125 -2.0625 3.0625 C-1 1 -1 1 0 0 Z " fill="#A5732F" transform="translate(203,180)"/>
<path d="M0 0 C2.875 1.4375 2.875 1.4375 5 4 C5.90705593 8.29865635 5.72920717 11.75427109 3.5 15.5625 C-0.04087907 17.59850547 -3.011929 17.79433858 -7 17 C-10.33219018 14.86398066 -10.89315459 13.3672811 -12 9.5625 C-12 6 -12 6 -10.1875 3.125 C-6.80120612 -0.16454263 -4.68230115 -0.45904913 0 0 Z " fill="#F9B71F" transform="translate(241,284)"/>
<path d="M0 0 C3.65907504 0.68607657 5.35167676 1.98984314 8 4.5625 C9.44430855 7.45111709 9.37688506 9.35897701 9 12.5625 C6.39210172 16.19775215 4.9297642 17.39647068 0.5 18.1875 C-3.95850936 17.39133761 -5.40783917 16.25436542 -8 12.5625 C-8.625 9.0625 -8.625 9.0625 -8 5.5625 C-5.54999553 2.17572911 -4.13607554 0.77551416 0 0 Z " fill="#F3B524" transform="translate(178,283.4375)"/>
<path d="M0 0 C1.9375 0.8125 1.9375 0.8125 4.9375 2.8125 C7.26949388 2.89155064 9.60582622 2.90048769 11.9375 2.8125 C9.54080579 9.44949936 9.54080579 9.44949936 6.9375 11.8125 C3.70015774 12.32322774 0.51691998 12.18677201 -2.75 12.0625 C-3.64267578 12.04445312 -4.53535156 12.02640625 -5.45507812 12.0078125 C-7.65863504 11.96067759 -9.86002601 11.89490657 -12.0625 11.8125 C-12.90098804 10.35712432 -13.73313934 8.89809627 -14.5625 7.4375 C-15.25859375 6.21933594 -15.25859375 6.21933594 -15.96875 4.9765625 C-17.0625 2.8125 -17.0625 2.8125 -17.0625 0.8125 C-16.36125 0.956875 -15.66 1.10125 -14.9375 1.25 C-13.514375 1.5284375 -13.514375 1.5284375 -12.0625 1.8125 C-10.5465625 2.18375 -10.5465625 2.18375 -9 2.5625 C-4.80974791 2.9191172 -3.81893188 -0.34717563 0 0 Z " fill="#A27234" transform="translate(219.0625,151.1875)"/>
<path d="M0 0 C7.75 -0.125 7.75 -0.125 10 1 C10 1.66 10 2.32 10 3 C6.92382812 3.29296875 6.92382812 3.29296875 3.84765625 3.5859375 C3.23792969 3.72257813 2.62820312 3.85921875 2 4 C1.67 4.66 1.34 5.32 1 6 C4.3 6 7.6 6 11 6 C10.34 7.32 9.68 8.64 9 10 C6.69 10 4.38 10 2 10 C4.10778194 13.68861839 6.29797894 16.62247368 9 20 C-1.89 20 -12.78 20 -24 20 C-23.67 19.34 -23.34 18.68 -23 18 C-22.34 18.33 -21.68 18.66 -21 19 C-20.81824219 18.24074219 -20.63648438 17.48148438 -20.44921875 16.69921875 C-20.19785156 15.70535156 -19.94648438 14.71148437 -19.6875 13.6875 C-19.44386719 12.70136719 -19.20023438 11.71523437 -18.94921875 10.69921875 C-18 8 -18 8 -15 5 C-16.485 11.435 -16.485 11.435 -18 18 C-12.72 17.67 -7.44 17.34 -2 17 C-1.855625 15.68 -1.71125 14.36 -1.5625 13 C-1.08117353 8.66118571 -0.55114977 4.33046246 0 0 Z " fill="#926C3B" transform="translate(205,183)"/>
<path d="M0 0 C2.04802496 -0.00967761 4.09503432 -0.04067386 6.14282227 -0.07226562 C7.43381836 -0.07742187 8.72481445 -0.08257812 10.05493164 -0.08789062 C11.83637573 -0.10190918 11.83637573 -0.10190918 13.65380859 -0.11621094 C16.99913723 0.26840043 18.40878805 0.86047194 20.75415039 3.24023438 C20.75415039 3.90023437 20.75415039 4.56023437 20.75415039 5.24023438 C19.10415039 5.90023437 17.45415039 6.56023437 15.75415039 7.24023438 C15.42415039 6.91023437 15.09415039 6.58023438 14.75415039 6.24023438 C12.75632913 6.08198179 10.75326205 5.98904266 8.75024414 5.92382812 C7.53530273 5.88193359 6.32036133 5.84003906 5.06860352 5.796875 C3.78920898 5.75755859 2.50981445 5.71824219 1.19165039 5.67773438 C-0.09161133 5.63455078 -1.37487305 5.59136719 -2.69702148 5.546875 C-5.87984814 5.44038638 -9.06275635 5.33837475 -12.24584961 5.24023438 C-12.80834961 3.30273438 -12.80834961 3.30273438 -13.24584961 1.24023438 C-10.63820166 -1.36741357 -3.53895825 0.01014149 0 0 Z " fill="#0A0B0B" transform="translate(144.245849609375,172.759765625)"/>
<path d="M0 0 C2.91587943 1.84672364 5.43125021 3.86250043 7 7 C7.60014069 12.77058356 7.10359396 16.95665982 4 22 C2.94669495 19.91254091 1.91542703 17.8198228 0.921875 15.703125 C-1.82911529 9.94438533 -4.97542585 4.95119432 -9 0 C-5.77186065 -1.61406968 -3.45147544 -0.80534427 0 0 Z " fill="#F2B940" transform="translate(247,176)"/>
<path d="M0 0 C6.27 0 12.54 0 19 0 C19.33 0.66 19.66 1.32 20 2 C22.31 2 24.62 2 27 2 C27 2.33 27 2.66 27 3 C26.43410156 3.10957031 25.86820313 3.21914063 25.28515625 3.33203125 C24.55167969 3.49058594 23.81820312 3.64914062 23.0625 3.8125 C22.33160156 3.96332031 21.60070312 4.11414063 20.84765625 4.26953125 C19.93306641 4.63111328 19.93306641 4.63111328 19 5 C17.80245183 8.59264452 17.66905042 11.22717474 18 15 C19.43661311 17.52006844 19.43661311 17.52006844 22 19 C25.64721696 19.80765878 25.64721696 19.80765878 29 20 C28.67 20.66 28.34 21.32 28 22 C26.35 22 24.7 22 23 22 C24.65 22.66 26.3 23.32 28 24 C28 24.33 28 24.66 28 25 C22.69356959 25.50537432 20.13319688 24.30655751 16 21 C13.10878643 17.85589068 12.59002683 15.74341102 12.625 11.5 C12.61726562 10.5615625 12.60953125 9.623125 12.6015625 8.65625 C13 6 13 6 16 2 C10.72 1.67 5.44 1.34 0 1 C0 0.67 0 0.34 0 0 Z " fill="#1E1805" transform="translate(153,281)"/>
<path d="M0 0 C2 0 2 0 3.625 1.5625 C4.40875 2.366875 5.1925 3.17125 6 4 C7.28829388 5.08734206 8.58031668 6.17027365 9.875 7.25 C17.15914135 13.6405478 21.59406331 20.5319315 24 30 C24.1015625 32.83203125 24.1015625 32.83203125 24 35 C23.01 35 22.02 35 21 35 C20.70609375 33.78376953 20.70609375 33.78376953 20.40625 32.54296875 C17.39007567 21.37532327 12.39985339 12.65687369 2.6640625 6.12109375 C1 5 1 5 -1 3 C-0.67 2.01 -0.34 1.02 0 0 Z " fill="#482B06" transform="translate(227,168)"/>
<path d="M0 0 C2.31332486 3.46998729 2.33957563 4.92509248 2 9 C1.01 10.485 1.01 10.485 0 12 C-3.42201828 12.37331109 -5.90185629 12.63763183 -8.9375 10.875 C-10.50422245 8.11019567 -10.38976435 6.11811483 -10 3 C-7.72386284 -1.01671263 -4.20715633 -0.45896251 0 0 Z " fill="#F1BE40" transform="translate(258,164)"/>
<path d="M0 0 C1.98 0 3.96 0 6 0 C6.97509909 2.58460001 7.15692639 3.63766589 6.0390625 6.21875 C5.57242188 6.9715625 5.10578125 7.724375 4.625 8.5 C2.66020188 11.69711826 2.66020188 11.69711826 1.4609375 15.21875 C1.30882812 15.8065625 1.15671875 16.394375 1 17 C-1.34852528 18.17426264 -2.73774065 18.11508173 -5.3515625 18.09765625 C-6.20234375 18.09443359 -7.053125 18.09121094 -7.9296875 18.08789062 C-8.81914062 18.07951172 -9.70859375 18.07113281 -10.625 18.0625 C-11.5221875 18.05798828 -12.419375 18.05347656 -13.34375 18.04882812 C-15.56256648 18.03702591 -17.78125018 18.02056155 -20 18 C-20.33 17.01 -20.66 16.02 -21 15 C-14.73 14.67 -8.46 14.34 -2 14 C-1.67 12.68 -1.34 11.36 -1 10 C0 8.33333333 1 6.66666667 2 5 C2.69579454 2.80869466 2.69579454 2.80869466 3 1 C2.01 0.67 1.02 0.34 0 0 Z " fill="#6E4B23" transform="translate(228,151)"/>
<path d="M0 0 C6.93359375 -0.09765625 6.93359375 -0.09765625 9 0 C10 1 10 1 10.1328125 3.25 C10.13023437 4.1575 10.12765625 5.065 10.125 6 C10.12757813 6.9075 10.13015625 7.815 10.1328125 8.75 C10 11 10 11 9 12 C5.99668982 12.14193337 3.00782866 12.04236378 0 12 C0 8.04 0 4.08 0 0 Z " fill="#1D0A00" transform="translate(215,240)"/>
<path d="M0 0 C6.35368578 -0.47952345 6.35368578 -0.47952345 8.9375 1.4375 C10.5413136 5.30552104 10.54617167 8.8741897 10 13 C8.40710448 16.66365969 6.55551347 19.123479 3 21 C-0.625 21.3125 -0.625 21.3125 -4 21 C-4.66 20.34 -5.32 19.68 -6 19 C-3 18 -3 18 0 18 C3.09539681 14.97658916 4.74168708 13.23990204 5.625 9 C4.76045949 4.85020558 2.90568196 3.05096606 0 0 Z " fill="#2A1C05" transform="translate(181,284)"/>
<path d="M0 0 C1.32 0.66 2.64 1.32 4 2 C3.34773438 2.54527344 2.69546875 3.09054688 2.0234375 3.65234375 C-7.33235117 11.72481627 -12.26446616 19.24405527 -16 31 C-16.66 31 -17.32 31 -18 31 C-17.6480652 20.26598858 -12.58467944 11.48300813 -5 4 C-3.3719908 2.61973133 -1.71956118 1.26438322 0 0 Z " fill="#4C3110" transform="translate(200,171)"/>
<path d="M0 0 C5.28 0 10.56 0 16 0 C16 1.65 16 3.3 16 5 C12.71023192 6.09658936 11.28696233 5.79953138 8 5 C7.67 6.32 7.34 7.64 7 9 C5.68 9 4.36 9 3 9 C3 8.34 3 7.68 3 7 C1.35 7.33 -0.3 7.66 -2 8 C-2 5 -2 5 0 3 C0 2.01 0 1.02 0 0 Z " fill="#F9B61E" transform="translate(202,223)"/>
<path d="M0 0 C2.64 0 5.28 0 8 0 C8 4.29 8 8.58 8 13 C5.36 13 2.72 13 0 13 C0 8.71 0 4.42 0 0 Z " fill="#DFA829" transform="translate(202,242)"/>
<path d="M0 0 C3.85313128 -0.23382288 7.70442912 -0.37489753 11.5625 -0.5 C12.64853516 -0.56703125 13.73457031 -0.6340625 14.85351562 -0.703125 C22.77879027 -0.89583685 22.77879027 -0.89583685 26.31738281 1.69995117 C29.19300382 4.8800196 30.82203309 7.05677536 31.625 11.3125 C31 14 31 14 29.8125 15.875 C27.43963721 17.34781139 25.74086056 17.22223194 23 17 C22.67 16.01 22.34 15.02 22 14 C23.65 14 25.3 14 27 14 C27.85325142 11.63083791 28.19974583 10.47318846 27.20263672 8.11108398 C24.85625261 5.0856991 23.13926156 3.28135864 19.34472656 2.34423828 C16.25288861 2.08683997 13.2271347 2.03002692 10.125 2.0625 C9.05507812 2.04638672 7.98515625 2.03027344 6.8828125 2.01367188 C4.25389857 1.97846321 1.62891445 1.97485054 -1 2 C-0.67 1.34 -0.34 0.68 0 0 Z " fill="#1F0B00" transform="translate(201,220)"/>
<path d="M0 0 C0.99 0.495 0.99 0.495 2 1 C2 1.66 2 2.32 2 3 C-1.96308054 4.32102685 -5.74705025 4.1308172 -9.87768555 4.11352539 C-10.78520569 4.11367142 -11.69272583 4.11381744 -12.62774658 4.1139679 C-15.63076152 4.11327061 -18.63371463 4.10548676 -21.63671875 4.09765625 C-23.71751369 4.09579142 -25.79830908 4.09436782 -27.87910461 4.09336853 C-33.3585023 4.08954849 -38.83787352 4.07972255 -44.31726074 4.06866455 C-49.90746706 4.05843943 -55.49767765 4.05386855 -61.08789062 4.04882812 C-72.05860538 4.03809985 -83.02930049 4.02102955 -94 4 C-94 3.67 -94 3.34 -94 3 C-92.29991035 2.98786972 -92.29991035 2.98786972 -90.56547546 2.97549438 C-79.89710374 2.89809224 -69.22886049 2.81036805 -58.56065655 2.71247292 C-53.07570118 2.66247459 -47.59076541 2.61614486 -42.10571289 2.578125 C-36.81477299 2.5413169 -31.52399564 2.49496916 -26.23319435 2.44193649 C-24.21216488 2.42336872 -22.19110054 2.40826963 -20.17001915 2.39665604 C-17.34453981 2.37983435 -14.51943468 2.35080927 -11.6940918 2.31884766 C-10.85396042 2.31668747 -10.01382904 2.31452728 -9.14823914 2.31230164 C-5.25849656 2.25589426 -3.30969135 2.2064609 0 0 Z " fill="#E5DDC8" transform="translate(258,267)"/>
<path d="M0 0 C2.875 1.4375 2.875 1.4375 5 4 C5.90705593 8.29865635 5.72920717 11.75427109 3.5 15.5625 C-0.22017755 17.70160209 -2.73688991 17.41255904 -7 17 C-7.66 16.34 -8.32 15.68 -9 15 C-5.37 15 -1.74 15 2 15 C2 13.35 2 11.7 2 10 C2.66 10 3.32 10 4 10 C3.67 9.01 3.34 8.02 3 7 C2.34 6.67 1.68 6.34 1 6 C1.33 5.01 1.66 4.02 2 3 C-0.31 3.66 -2.62 4.32 -5 5 C-5 4.34 -5 3.68 -5 3 C-7.07935207 3.4100567 -7.07935207 3.4100567 -9 5 C-9.68790422 7.69658452 -9.81946464 10.2017019 -10 13 C-10.66 12.34 -11.32 11.68 -12 11 C-11.92290713 6.83698517 -11.62578976 4.69730859 -8.8125 1.5625 C-5.45611204 -0.30215998 -3.7822566 -0.6303761 0 0 Z " fill="#DBAE34" transform="translate(241,284)"/>
<path d="M0 0 C0 0.99 0 1.98 0 3 C3.3 2.67 6.6 2.34 10 2 C10.495 3.485 10.495 3.485 11 5 C9.80375 4.896875 8.6075 4.79375 7.375 4.6875 C3.88440321 4.65644487 2.16275632 5.2385682 -0.5 7.5 C-1.325 8.325 -2.15 9.15 -3 10 C-3.99 9.34 -4.98 8.68 -6 8 C-4.125 4.125 -4.125 4.125 -3 3 C-17.19 3 -31.38 3 -46 3 C-46 2.34 -46 1.68 -46 1 C-39.77035229 0.85726712 -33.54069659 0.71488649 -27.31103516 0.57275391 C-25.19059058 0.52433303 -23.07014786 0.4758307 -20.94970703 0.42724609 C-17.90658034 0.35753445 -14.86344715 0.28811314 -11.8203125 0.21875 C-10.86818878 0.19687622 -9.91606506 0.17500244 -8.93508911 0.15246582 C-8.05432709 0.13244507 -7.17356506 0.11242432 -6.26611328 0.09179688 C-5.48889923 0.07403198 -4.71168518 0.05626709 -3.91091919 0.03796387 C-2.60747524 0.01206859 -1.30370115 0 0 0 Z " fill="#4B4638" transform="translate(232,280)"/>
<path d="M0 0 C0.33 1.65 0.66 3.3 1 5 C0.34 4.67 -0.32 4.34 -1 4 C-1 3.34 -1 2.68 -1 2 C-3.31 2 -5.62 2 -8 2 C-8.33 2.99 -8.66 3.98 -9 5 C-9.66 5 -10.32 5 -11 5 C-10.46022435 8.47548841 -10.46022435 8.47548841 -9 12 C-5.99405579 13.53146378 -5.99405579 13.53146378 -3 14 C-5.64738916 15.4606285 -6.89448334 16 -10 16 C-11.11375 15.505 -11.11375 15.505 -12.25 15 C-15.61226925 13.77735664 -18.44980045 13.86077649 -22 14 C-22 12.68 -22 11.36 -22 10 C-18.7 10 -15.4 10 -12 10 C-12.0825 9.0925 -12.165 8.185 -12.25 7.25 C-12 4 -12 4 -10.5 1.625 C-6.86748926 -0.73613198 -4.28156703 -0.2854378 0 0 Z " fill="#FCEAB9" transform="translate(259,162)"/>
<path d="M0 0 C1.02222656 0.03158203 2.04445312 0.06316406 3.09765625 0.09570312 C5.60975434 0.17787456 8.11586534 0.29265652 10.625 0.4375 C10.625 0.7675 10.625 1.0975 10.625 1.4375 C3.695 1.4375 -3.235 1.4375 -10.375 1.4375 C-10.045 2.7575 -9.715 4.0775 -9.375 5.4375 C-10.375 6.4375 -11.375 7.4375 -12.375 8.4375 C-12.14742269 10.60049211 -12.14742269 10.60049211 -11.375 12.4375 C-13.03114657 12.81968767 -14.69957024 13.15145102 -16.375 13.4375 C-17.375 12.4375 -17.375 12.4375 -17.8125 10.3125 C-17.2449991 6.58320838 -15.88615879 4.71820367 -13.40942383 1.92578125 C-9.4018582 -1.00595043 -4.75572844 -0.27920728 0 0 Z " fill="#DEA82A" transform="translate(212.375,221.5625)"/>
<path d="M0 0 C1.4370809 -0.05422947 2.87475462 -0.09289723 4.3125 -0.125 C5.11300781 -0.14820313 5.91351563 -0.17140625 6.73828125 -0.1953125 C9 0 9 0 12 2 C11.1875 3.9375 11.1875 3.9375 10 6 C9.01 6.33 8.02 6.66 7 7 C7 7.66 7 8.32 7 9 C7.66 9.33 8.32 9.66 9 10 C9 14 9 14 7.5 15.75 C7.005 16.1625 6.51 16.575 6 17 C5.98582031 16.443125 5.97164062 15.88625 5.95703125 15.3125 C5.56449047 9.03184746 3.71654076 5.03310133 0 0 Z " fill="#FBECCC" transform="translate(246,282)"/>
<path d="M0 0 C1.485 0.99 1.485 0.99 3 2 C5.32387947 2.39387788 7.65793749 2.73486085 10 3 C9.67 3.99 9.34 4.98 9 6 C8.77281504 8.56634861 8.58391816 11.11678107 8.4375 13.6875 C8.39431641 14.38939453 8.35113281 15.09128906 8.30664062 15.81445312 C8.2008264 17.54275206 8.09993419 19.2713511 8 21 C7.01 21 6.02 21 5 21 C5 15.72 5 10.44 5 5 C4.01 5 3.02 5 2 5 C1.67 5.99 1.34 6.98 1 8 C0.67 5.36 0.34 2.72 0 0 Z " fill="#C69936" transform="translate(192,234)"/>
<path d="M0 0 C2.46278801 1.231394 3.42497687 2.78064923 5 5 C4.01 5.33 3.02 5.66 2 6 C1.26676204 8.01508358 1.26676204 8.01508358 1 10 C-0.65 10 -2.3 10 -4 10 C-4 11.32 -4 12.64 -4 14 C-4.99 14.66 -5.98 15.32 -7 16 C-7.72382467 18.05925139 -7.72382467 18.05925139 -8 20 C-10 18.625 -10 18.625 -12 17 C-12 16.34 -12 15.68 -12 15 C-11.21625 14.7525 -10.4325 14.505 -9.625 14.25 C-6.67682892 12.84610901 -6.0975223 11.99324263 -5 9 C-3.35 9 -1.7 9 0 9 C0 8.01 0 7.02 0 6 C-1.65 6 -3.3 6 -5 6 C-5.33 5.01 -5.66 4.02 -6 3 C-5.195625 2.87625 -4.39125 2.7525 -3.5625 2.625 C-2.716875 2.41875 -1.87125 2.2125 -1 2 C-0.67 1.34 -0.34 0.68 0 0 Z " fill="#916C3A" transform="translate(226,180)"/>
<path d="M0 0 C0.99 0 1.98 0 3 0 C3 5.28 3 10.56 3 16 C3.66 16 4.32 16 5 16 C5 16.66 5 17.32 5 18 C0.71 18 -3.58 18 -8 18 C-5 16 -5 16 0 16 C0 10.72 0 5.44 0 0 Z " fill="#2D1600" transform="translate(227,239)"/>
<path d="M0 0 C0 5.94 0 11.88 0 18 C-0.99 18 -1.98 18 -3 18 C-4.13480527 14.39006828 -4.10015767 11.0157673 -4.0625 7.25 C-4.05347656 6.07953125 -4.04445312 4.9090625 -4.03515625 3.703125 C-4.02355469 2.81109375 -4.01195312 1.9190625 -4 1 C-2 0 -2 0 0 0 Z " fill="#0A0C0A" transform="translate(165,178)"/>
<path d="M0 0 C0.99 0 1.98 0 3 0 C3.33 5.94 3.66 11.88 4 18 C2.02 18 0.04 18 -2 18 C-2 17.34 -2 16.68 -2 16 C-1.34 16 -0.68 16 0 16 C0 10.72 0 5.44 0 0 Z " fill="#331C04" transform="translate(194,239)"/>
<path d="M0 0 C0.33 0.66 0.66 1.32 1 2 C2.299375 1.7215625 2.299375 1.7215625 3.625 1.4375 C11.00972288 0.37604086 19.3286582 0.6643291 26 4 C16.76 4 7.52 4 -2 4 C-1.34 2.68 -0.68 1.36 0 0 Z " fill="#D9D1BD" transform="translate(134,169)"/>
<path d="M0 0 C3.01017797 3.92631909 4.20070404 5.66119077 3.5625 10.625 C3.46066406 11.44226563 3.35882813 12.25953125 3.25390625 13.1015625 C3.17011719 13.72804687 3.08632813 14.35453125 3 15 C1.68 15.33 0.36 15.66 -1 16 C-1.33 17.65 -1.66 19.3 -2 21 C-2.91145054 18.02977779 -3.01801972 15.93514414 -2.44140625 12.890625 C-2.30283203 12.13652344 -2.16425781 11.38242188 -2.02148438 10.60546875 C-1.87001953 9.82816406 -1.71855469 9.05085937 -1.5625 8.25 C-1.41490234 7.45722656 -1.26730469 6.66445312 -1.11523438 5.84765625 C-0.75096034 3.89702754 -0.37647488 1.9483107 0 0 Z " fill="#2A210D" transform="translate(264,216)"/>
<path d="M0 0 C1.6696582 0.05414063 1.6696582 0.05414063 3.37304688 0.109375 C6.10646097 0.20322613 8.83265413 0.33434241 11.5625 0.5 C11.5625 0.83 11.5625 1.16 11.5625 1.5 C3.9725 1.83 -3.6175 2.16 -11.4375 2.5 C-12.0975 3.82 -12.7575 5.14 -13.4375 6.5 C-14.24205176 7.76871624 -15.07527449 9.0197514 -15.9375 10.25 C-16.57171875 11.17039063 -16.57171875 11.17039063 -17.21875 12.109375 C-17.6209375 12.56828125 -18.023125 13.0271875 -18.4375 13.5 C-19.0975 13.5 -19.7575 13.5 -20.4375 13.5 C-19.72048584 8.58885581 -18.07431917 5.76537085 -14.74169922 2.140625 C-10.26685411 -1.04553299 -5.27316062 -0.32546511 0 0 Z " fill="#4F3101" transform="translate(212.4375,218.5)"/>
<path d="M0 0 C2.375 0.25 2.375 0.25 5 1 C6.3125 3.0625 6.3125 3.0625 7 5 C5.35 5.66 3.7 6.32 2 7 C1.67 6.67 1.34 6.34 1 6 C-0.99782126 5.84174742 -3.00088834 5.74880829 -5.00390625 5.68359375 C-6.21884766 5.64169922 -7.43378906 5.59980469 -8.68554688 5.55664062 C-9.96494141 5.51732422 -11.24433594 5.47800781 -12.5625 5.4375 C-13.84576172 5.39431641 -15.12902344 5.35113281 -16.45117188 5.30664062 C-19.63399853 5.200152 -22.81690674 5.09814038 -26 5 C-26 4.67 -26 4.34 -26 4 C-17.09 4 -8.18 4 1 4 C0.67 2.68 0.34 1.36 0 0 Z " fill="#3A362F" transform="translate(158,173)"/>
<path d="M0 0 C1.65 0 3.3 0 5 0 C5 0.66 5 1.32 5 2 C5.66 2.33 6.32 2.66 7 3 C6.67 4.98 6.34 6.96 6 9 C4.02 9.66 2.04 10.32 0 11 C-0.19491452 9.54263913 -0.38069358 8.08405407 -0.5625 6.625 C-0.66691406 5.81289062 -0.77132812 5.00078125 -0.87890625 4.1640625 C-1 2 -1 2 0 0 Z " fill="#FAF9E3" transform="translate(85,85)"/>
<path d="M0 0 C0.12117187 1.07121094 0.24234375 2.14242188 0.3671875 3.24609375 C0.53597601 4.64328752 0.70527313 6.04041991 0.875 7.4375 C0.95363281 8.14455078 1.03226563 8.85160156 1.11328125 9.58007812 C1.33927676 11.39673432 1.66300727 13.20062522 2 15 C2.66 15.33 3.32 15.66 4 16 C0.69866765 15.7323244 -0.62503298 15.4396165 -2.8125 12.875 C-4.27896509 9.32461082 -4.42316087 6.80844784 -4 3 C-1.77419355 0 -1.77419355 0 0 0 Z " fill="#0F0C04" transform="translate(229,286)"/>
<path d="M0 0 C0.33 0 0.66 0 1 0 C0.40546697 14.78132118 0.40546697 14.78132118 -3 21 C-3.33 21 -3.66 21 -4 21 C-4.054138 18.75026553 -4.09285491 16.50015617 -4.125 14.25 C-4.14820313 12.99703125 -4.17140625 11.7440625 -4.1953125 10.453125 C-4.01537302 7.27179508 -3.68998582 5.63478104 -2 3 C-2 3.66 -2 4.32 -2 5 C-1.34 5 -0.68 5 0 5 C0 3.35 0 1.7 0 0 Z " fill="#19150F" transform="translate(269,204)"/>
<path d="M0 0 C2.5625 2.25 2.5625 2.25 5 5 C4.8125 7.3125 4.8125 7.3125 4 9 C2.125 9.625 2.125 9.625 0 10 C-0.66 9.34 -1.32 8.68 -2 8 C-2 7.01 -2 6.02 -2 5 C-2.99 4.67 -3.98 4.34 -5 4 C-3.68 4 -2.36 4 -1 4 C-0.67 2.68 -0.34 1.36 0 0 Z " fill="#E7AD2B" transform="translate(225,225)"/>
<path d="M0 0 C0.99 0 1.98 0 3 0 C3 0.99 3 1.98 3 3 C4.65 2.34 6.3 1.68 8 1 C7.67 3.31 7.34 5.62 7 8 C4.6875 8.25 4.6875 8.25 2 8 C0.125 6.25 0.125 6.25 -1 4 C-0.6875 1.75 -0.6875 1.75 0 0 Z " fill="#FBB61E" transform="translate(251,167)"/>
<path d="M0 0 C1.4540625 0.0309375 1.4540625 0.0309375 2.9375 0.0625 C4.0625 4.8125 4.0625 4.8125 2.9375 7.0625 C0.93795254 7.10504356 -1.06291636 7.10330783 -3.0625 7.0625 C-4.0625 6.0625 -4.0625 6.0625 -4.1875 3.5625 C-4.00295237 -0.12845252 -3.76342282 0.07680455 0 0 Z " fill="#EABB4F" transform="translate(221.0625,136.9375)"/>
<path d="M0 0 C-2.39669421 6.63699936 -2.39669421 6.63699936 -5 9 C-8.23734226 9.51072774 -11.42058002 9.37427201 -14.6875 9.25 C-15.58017578 9.23195312 -16.47285156 9.21390625 -17.39257812 9.1953125 C-19.59613504 9.14817759 -21.79752601 9.08240657 -24 9 C-24 8.67 -24 8.34 -24 8 C-15.585 7.505 -15.585 7.505 -7 7 C-5.91915479 3.36380344 -5.91915479 3.36380344 -6 1 C-3 0 -3 0 0 0 Z " fill="#9B703D" transform="translate(231,154)"/>
<path d="M0 0 C3.96 0 7.92 0 12 0 C11.67 0.66 11.34 1.32 11 2 C8.03 2 5.06 2 2 2 C2 6.62 2 11.24 2 16 C1.34 16 0.68 16 0 16 C0 10.72 0 5.44 0 0 Z " fill="#1D0C00" transform="translate(200,240)"/>
<path d="M0 0 C1.2065625 0.0309375 1.2065625 0.0309375 2.4375 0.0625 C3.5625 4.8125 3.5625 4.8125 2.4375 7.0625 C0.77138095 7.105221 -0.89632885 7.10313832 -2.5625 7.0625 C-3.5625 6.0625 -3.5625 6.0625 -3.6875 3.5625 C-3.51717518 0.15600356 -3.41884482 0.08338646 0 0 Z " fill="#F1B938" transform="translate(241.5625,144.9375)"/>
<path d="M0 0 C2.15925951 5.39814878 -0.86745567 10.97328838 -3 16 C-3.33 16 -3.66 16 -4 16 C-4.38095238 5.1005291 -4.38095238 5.1005291 -2 1 C-1.34 0.67 -0.68 0.34 0 0 Z " fill="#0C0E03" transform="translate(265,231)"/>
<path d="M0 0 C0.515625 0.309375 1.03125 0.61875 1.5625 0.9375 C4.66665423 2.29059287 7.65115007 2.61359424 11 3 C10.67 3.66 10.34 4.32 10 5 C8.35 5 6.7 5 5 5 C7.475 5.99 7.475 5.99 10 7 C10 7.33 10 7.66 10 8 C4.70558305 8.50423019 2.18586481 7.18923033 -2 4 C-1.34 3.34 -0.68 2.68 0 2 C0 1.34 0 0.68 0 0 Z " fill="#352C14" transform="translate(171,298)"/>
<path d="M0 0 C1.65 0 3.3 0 5 0 C5 2.64 5 5.28 5 8 C3.35 8 1.7 8 0 8 C0 5.36 0 2.72 0 0 Z " fill="#D6A630" transform="translate(217,242)"/>
<path d="M0 0 C2 0 2 0 3.875 1.8125 C4.57625 2.534375 5.2775 3.25625 6 4 C7.31558703 5.02323436 8.64377755 6.03126968 10 7 C9.67 7.99 9.34 8.98 9 10 C5.4213696 8.34832443 2.25179812 6.21713508 -1 4 C-0.67 2.68 -0.34 1.36 0 0 Z " fill="#4C300F" transform="translate(227,168)"/>
<path d="M0 0 C2.45179712 1.83884784 2.96567755 2.80264589 3.5 5.875 C3 9 3 9 0.9375 11.875 C-2 14 -2 14 -5.5625 14.5625 C-9.44141882 13.92776783 -10.62054913 13.04569711 -13 10 C-12.319375 10.33 -11.63875 10.66 -10.9375 11 C-7.49159762 12.17307315 -4.61602578 12.14180493 -1 12 C1.22923777 7.67265609 0.92470553 4.71599818 0 0 Z " fill="#DBB341" transform="translate(184,287)"/>
<path d="M0 0 C6.27 0 12.54 0 19 0 C19 0.99 19 1.98 19 3 C18.34 3 17.68 3 17 3 C17.33 3.99 17.66 4.98 18 6 C16.35 7.32 14.7 8.64 13 10 C13.54723683 6.62537285 14.0549 4.91765 16 2 C10.72 1.67 5.44 1.34 0 1 C0 0.67 0 0.34 0 0 Z " fill="#4D4B41" transform="translate(153,281)"/>
<path d="M0 0 C2.475 0.99 2.475 0.99 5 2 C5 2.99 5 3.98 5 5 C6.32 5.33 7.64 5.66 9 6 C8.01 6.33 7.02 6.66 6 7 C4 6 4 6 3 3 C2.34 2.67 1.68 2.34 1 2 C0.67 3.32 0.34 4.64 0 6 C-1.875 6.625 -1.875 6.625 -4 7 C-4.66 6.34 -5.32 5.68 -6 5 C-5.67 4.01 -5.34 3.02 -5 2 C-3.68 2.66 -2.36 3.32 -1 4 C-0.67 2.68 -0.34 1.36 0 0 Z " fill="#D8A534" transform="translate(210,228)"/>
<path d="M0 0 C8.58 0 17.16 0 26 0 C26 0.33 26 0.66 26 1 C18.41 1 10.82 1 3 1 C3.33 1.99 3.66 2.98 4 4 C2.35 4 0.7 4 -1 4 C-0.67 2.68 -0.34 1.36 0 0 Z " fill="#1D1A12" transform="translate(132,173)"/>
<path d="M0 0 C0.66 0.33 1.32 0.66 2 1 C2 1.66 2 2.32 2 3 C4.64 3.33 7.28 3.66 10 4 C10 4.33 10 4.66 10 5 C8.35 5 6.7 5 5 5 C5 5.99 5 6.98 5 8 C6.98 8 8.96 8 11 8 C11 8.33 11 8.66 11 9 C5.28341664 9.45732667 2.51350747 8.52273754 -2 5 C-1.34 4.34 -0.68 3.68 0 3 C0 2.01 0 1.02 0 0 Z " fill="#433B23" transform="translate(230,297)"/>
<path d="M0 0 C0.99 0.33 1.98 0.66 3 1 C3 2.98 3 4.96 3 7 C2.01 7.33 1.02 7.66 0 8 C0 8.66 0 9.32 0 10 C-4.75 9.125 -4.75 9.125 -7 8 C-7 6.35 -7 4.7 -7 3 C-6.01 4.485 -6.01 4.485 -5 6 C-2.43717258 6.72965366 -2.43717258 6.72965366 0 7 C0 4.69 0 2.38 0 0 Z " fill="#FCE2A6" transform="translate(244,145)"/>
<path d="M0 0 C0.74886475 0.00523682 1.49772949 0.01047363 2.26928711 0.01586914 C3.07817383 0.0190918 3.88706055 0.02231445 4.72045898 0.02563477 C5.5705957 0.03401367 6.42073242 0.04239258 7.29663086 0.05102539 C8.15063477 0.05553711 9.00463867 0.06004883 9.88452148 0.06469727 C12.00108749 0.07652166 14.11761771 0.0944577 16.23413086 0.11352539 C16.23413086 0.44352539 16.23413086 0.77352539 16.23413086 1.11352539 C11.28413086 1.44352539 6.33413086 1.77352539 1.23413086 2.11352539 C2.22413086 3.76352539 3.21413086 5.41352539 4.23413086 7.11352539 C3.24413086 7.77352539 2.25413086 8.43352539 1.23413086 9.11352539 C0.80100586 7.41196289 0.80100586 7.41196289 0.35913086 5.67602539 C-0.01211914 4.50040039 -0.38336914 3.32477539 -0.76586914 2.11352539 C-1.42586914 1.78352539 -2.08586914 1.45352539 -2.76586914 1.11352539 C-1.76586914 0.11352539 -1.76586914 0.11352539 0 0 Z " fill="#444138" transform="translate(245.765869140625,280.886474609375)"/>
<path d="M0 0 C1.98 0 3.96 0 6 0 C6 3.3 6 6.6 6 10 C4.35 10.33 2.7 10.66 1 11 C1.66 10.34 2.32 9.68 3 9 C3.24212873 7.01871492 3.24212873 7.01871492 3.125 4.875 C3.063125 2.956875 3.063125 2.956875 3 1 C2.01 0.67 1.02 0.34 0 0 Z " fill="#331A01" transform="translate(219,241)"/>
<path d="M0 0 C0.66 0 1.32 0 2 0 C3.22485812 2.44971624 3.16722808 4.14234461 3.1875 6.875 C3.20167969 7.73867187 3.21585937 8.60234375 3.23046875 9.4921875 C2.98859252 12.1241288 2.32983541 13.73980544 1 16 C0.34 16 -0.32 16 -1 16 C-1.33 16.66 -1.66 17.32 -2 18 C-1.125 12.125 -1.125 12.125 0 11 C0.07226502 9.14712498 0.0838122 7.29166122 0.0625 5.4375 C0.05347656 4.42558594 0.04445312 3.41367188 0.03515625 2.37109375 C0.02355469 1.58863281 0.01195312 0.80617187 0 0 Z " fill="#FDE6AE" transform="translate(253,181)"/>
<path d="M0 0 C0.33 0.99 0.66 1.98 1 3 C0.01 4.485 0.01 4.485 -1 6 C-1.63292383 8.11280345 -1.63292383 8.11280345 -2 10 C-4.86724686 9.42655063 -5.8614515 9.1385485 -8 7 C-6.50529266 4.01058532 -3.92442937 3.46221468 -1 2 C-0.67 1.34 -0.34 0.68 0 0 Z " fill="#F8E8CA" transform="translate(228,141)"/>
<path d="M0 0 C1.11375 0.556875 1.11375 0.556875 2.25 1.125 C1.92 2.115 1.59 3.105 1.25 4.125 C1.25 3.465 1.25 2.805 1.25 2.125 C-0.73 2.455 -2.71 2.785 -4.75 3.125 C-4.75 4.775 -4.75 6.425 -4.75 8.125 C-3.1 8.455 -1.45 8.785 0.25 9.125 C0.25 9.455 0.25 9.785 0.25 10.125 C-2.06 10.125 -4.37 10.125 -6.75 10.125 C-6.75 7.155 -6.75 4.185 -6.75 1.125 C-2.75 -0.875 -2.75 -0.875 0 0 Z " fill="#FDE6A6" transform="translate(222.75,134.875)"/>
<path d="M0 0 C0.99 0 1.98 0 3 0 C4.20272819 2.40545638 4.10071472 3.94996953 4.0625 6.625 C4.05347656 7.44226563 4.04445312 8.25953125 4.03515625 9.1015625 C4.02355469 9.72804688 4.01195312 10.35453125 4 11 C2.68 11.33 1.36 11.66 0 12 C0.185625 11.505 0.37125 11.01 0.5625 10.5 C1.20139296 6.84918311 0.54905291 3.66035276 0 0 Z " fill="#11110E" transform="translate(187,286)"/>
<path d="M0 0 C4.29 0 8.58 0 13 0 C11 5 11 5 10 7 C9.34 7 8.68 7 8 7 C7.566875 6.195625 7.13375 5.39125 6.6875 4.5625 C5.23212941 1.75717669 5.23212941 1.75717669 2.3125 1.1875 C1.1678125 1.0946875 1.1678125 1.0946875 0 1 C0 0.67 0 0.34 0 0 Z " fill="#090C0A" transform="translate(209,181)"/>
<path d="M0 0 C2.9375 0.75 2.9375 0.75 6 2 C6.875 4.125 6.875 4.125 7 6 C5.35 6.66 3.7 7.32 2 8 C1.01 5.69 0.02 3.38 -1 1 C-0.67 0.67 -0.34 0.34 0 0 Z " fill="#F5E8C6" transform="translate(194,152)"/>
<path d="M0 0 C2.64 0 5.28 0 8 0 C8.33 1.32 8.66 2.64 9 4 C5.04 4 1.08 4 -3 4 C-3 3.67 -3 3.34 -3 3 C-1.02 3 0.96 3 3 3 C3 2.34 3 1.68 3 1 C2.01 0.67 1.02 0.34 0 0 Z " fill="#17140B" transform="translate(254,277)"/>
<path d="M0 0 C1.32 0.66 2.64 1.32 4 2 C2.02 4.64 0.04 7.28 -2 10 C-2.33 9.34 -2.66 8.68 -3 8 C-3.66 7.67 -4.32 7.34 -5 7 C-3.35 4.69 -1.7 2.38 0 0 Z " fill="#523515" transform="translate(192,178)"/>
<path d="M0 0 C0.66 0.33 1.32 0.66 2 1 C1.63088042 3.67611698 1.15144437 4.8431469 -0.75 6.8125 C-3.6004589 8.31690887 -4.98088413 7.92250763 -8 7 C-5.47211993 4.20127563 -3.79588866 2.54226981 0 2 C0 1.34 0 0.68 0 0 Z " fill="#EBDDBF" transform="translate(215,144)"/>
<path d="M0 0 C0.33 0 0.66 0 1 0 C1.0809723 2.43816585 1.14046972 4.87364384 1.1875 7.3125 C1.22520508 8.34793945 1.22520508 8.34793945 1.26367188 9.40429688 C1.29296875 11.42578125 1.29296875 11.42578125 1 15 C0.01 15.99 -0.98 16.98 -2 18 C-1.34 12.06 -0.68 6.12 0 0 Z " fill="#261C03" transform="translate(260,240)"/>
<path d="M0 0 C1.65 0.99 3.3 1.98 5 3 C3.515 5.475 3.515 5.475 2 8 C0.68 7.01 -0.64 6.02 -2 5 C-1.125 1.125 -1.125 1.125 0 0 Z " fill="#F5E9CD" transform="translate(163,168)"/>
<path d="M0 0 C3.625 -0.1875 3.625 -0.1875 7 0 C6.67 0.99 6.34 1.98 6 3 C2.4375 4.6875 2.4375 4.6875 -1 6 C-1.33 5.01 -1.66 4.02 -2 3 C-1.34 2.01 -0.68 1.02 0 0 Z " fill="#CCC0C3" transform="translate(85,82)"/>
<path d="M0 0 C0.66 0 1.32 0 2 0 C1.34 2.31 0.68 4.62 0 7 C-0.99 6.34 -1.98 5.68 -3 5 C-3.99 6.32 -4.98 7.64 -6 9 C-6.66 8.67 -7.32 8.34 -8 8 C-6.38405168 5.95880212 -4.7143618 3.95927063 -3 2 C-2.34 2 -1.68 2 -1 2 C-0.67 1.34 -0.34 0.68 0 0 Z " fill="#1B1D16" transform="translate(163,266)"/>
<path d="M0 0 C0.66 1.32 1.32 2.64 2 4 C3.65 4 5.3 4 7 4 C7 4.99 7 5.98 7 7 C1.5 7.36666667 1.5 7.36666667 -0.875 5.625 C-2 4 -2 4 -2 2 C-1.34 2 -0.68 2 0 2 C0 1.34 0 0.68 0 0 Z " fill="#351A01" transform="translate(194,230)"/>
<path d="M0 0 C2.31 0 4.62 0 7 0 C6.67 2.64 6.34 5.28 6 8 C3.87961365 5.38485683 1.86908256 2.80362384 0 0 Z " fill="#EDE4CE" transform="translate(246,282)"/>
<path d="M0 0 C0.33 0 0.66 0 1 0 C1.22786458 2.05078125 1.45572917 4.1015625 1.68359375 6.15234375 C1.81886614 8.01140229 1.81886614 8.01140229 3 9 C4.68183948 9.23287008 6.3712416 9.41264166 8.0625 9.5625 C8.98160156 9.64628906 9.90070313 9.73007813 10.84765625 9.81640625 C11.55792969 9.87699219 12.26820313 9.93757812 13 10 C13 10.33 13 10.66 13 11 C8.71 11 4.42 11 0 11 C0 7.37 0 3.74 0 0 Z " fill="#EDB73A" transform="translate(213,243)"/>
<path d="M0 0 C2.33294775 -0.04241723 4.66702567 -0.04092937 7 0 C8 1 8 1 8.1875 3.9375 C8 7 8 7 6 9 C6.33 6.69 6.66 4.38 7 2 C5.35 2.66 3.7 3.32 2 4 C2 3.01 2 2.02 2 1 C1.34 0.67 0.68 0.34 0 0 Z " fill="#F3B931" transform="translate(252,166)"/>
<path d="M0 0 C2.97 0 5.94 0 9 0 C9 0.33 9 0.66 9 1 C8.2575 1.061875 7.515 1.12375 6.75 1.1875 C3.1814261 2.24185138 2.07754772 3.99909773 0 7 C-0.66 6.67 -1.32 6.34 -2 6 C-1.34 4.02 -0.68 2.04 0 0 Z " fill="#4B3213" transform="translate(204,164)"/>
<path d="M0 0 C1.98 0.99 1.98 0.99 4 2 C4 2.66 4 3.32 4 4 C4.66 4 5.32 4 6 4 C6 6.31 6 8.62 6 11 C3.27698513 8.27698513 1.82192021 5.40091772 0 2 C0 1.34 0 0.68 0 0 Z " fill="#E2AB32" transform="translate(243,181)"/>
<path d="M0 0 C2.97 0 5.94 0 9 0 C8.67 0.99 8.34 1.98 8 3 C5.36 3 2.72 3 0 3 C0 2.01 0 1.02 0 0 Z " fill="#0E0E07" transform="translate(235,302)"/>
<path d="M0 0 C2.475 0.99 2.475 0.99 5 2 C4.01 2.495 4.01 2.495 3 3 C3 4.98 3 6.96 3 9 C2.01 9.33 1.02 9.66 0 10 C0 6.7 0 3.4 0 0 Z " fill="#D9A821" transform="translate(231,227)"/>
<path d="M0 0 C2.97 0.495 2.97 0.495 6 1 C6.66 2.98 7.32 4.96 8 7 C7.01 7 6.02 7 5 7 C3.61328125 5.46875 3.61328125 5.46875 2.3125 3.5 C1.87550781 2.8503125 1.43851563 2.200625 0.98828125 1.53125 C0.49908203 0.77328125 0.49908203 0.77328125 0 0 Z " fill="#E0AF2D" transform="translate(224,219)"/>
<path d="M0 0 C1.65 0 3.3 0 5 0 C5 1.65 5 3.3 5 5 C3.35 4.67 1.7 4.34 0 4 C0 2.68 0 1.36 0 0 Z " fill="#F9B523" transform="translate(218,138)"/>
<path d="M0 0 C0 3.81739679 -0.20359213 5.63173525 -2 9 C-2.99 8.34 -3.98 7.68 -5 7 C-4.75 4.625 -4.75 4.625 -4 2 C-1.9375 0.6875 -1.9375 0.6875 0 0 Z " fill="#EDE2C6" transform="translate(247,302)"/>
<path d="M0 0 C0.99 0.33 1.98 0.66 3 1 C3 1.99 3 2.98 3 4 C4.98 4 6.96 4 9 4 C9 4.33 9 4.66 9 5 C5.7 5 2.4 5 -1 5 C-0.67 3.35 -0.34 1.7 0 0 Z " fill="#C49523" transform="translate(202,235)"/>
<path d="M0 0 C2 2 2 2 2.1953125 4.1640625 C2.17210937 4.97617188 2.14890625 5.78828125 2.125 6.625 C2.10695312 7.44226563 2.08890625 8.25953125 2.0703125 9.1015625 C2.03550781 10.04128906 2.03550781 10.04128906 2 11 C1.01 11.495 1.01 11.495 0 12 C0 9.03 0 6.06 0 3 C-0.66 2.67 -1.32 2.34 -2 2 C-1.34 2 -0.68 2 0 2 C0 1.34 0 0.68 0 0 Z " fill="#F9C53F" transform="translate(249,182)"/>
<path d="M0 0 C0.99 0.66 1.98 1.32 3 2 C4.65549531 2.38499891 6.3222433 2.72793135 8 3 C5.35261084 4.4606285 4.10551666 5 1 5 C-0.68236471 4.37400383 -2.3523962 3.71247732 -4 3 C-2.68 2.67 -1.36 2.34 0 2 C0 1.34 0 0.68 0 0 Z " fill="#FCE19B" transform="translate(248,173)"/>
<path d="M0 0 C1.98 0 3.96 0 6 0 C6.6875 1.75 6.6875 1.75 7 4 C5.5625 6.25 5.5625 6.25 4 8 C4 7.01 4 6.02 4 5 C3.76230794 2.8817921 3.76230794 2.8817921 3 1 C2.01 0.67 1.02 0.34 0 0 Z " fill="#483419" transform="translate(228,151)"/>
<path d="M0 0 C0.66 0.33 1.32 0.66 2 1 C2.625 4.0625 2.625 4.0625 3 7 C0.525 6.01 0.525 6.01 -2 5 C-2 3.68 -2 2.36 -2 1 C-1.34 0.67 -0.68 0.34 0 0 Z " fill="#18150D" transform="translate(169,295)"/>
<path d="M0 0 C-0.39803561 2.88575819 -0.79009069 3.82189513 -3.0625 5.75 C-3.701875 6.1625 -4.34125 6.575 -5 7 C-5.33 6.01 -5.66 5.02 -6 4 C-2.25 0 -2.25 0 0 0 Z " fill="#E6DEC6" transform="translate(158,269)"/>
<path d="M0 0 C2.01920337 1.30406884 4.01924973 2.63823419 6 4 C6 4.33 6 4.66 6 5 C4.35 5 2.7 5 1 5 C0.67 3.35 0.34 1.7 0 0 Z M-4 1 C-2.68 1.33 -1.36 1.66 0 2 C-0.33 2.99 -0.66 3.98 -1 5 C-1.99 3.68 -2.98 2.36 -4 1 Z " fill="#211606" transform="translate(214,197)"/>
<path d="M0 0 C0 0.99 0 1.98 0 3 C-2.375 4.75 -2.375 4.75 -5 6 C-5.66 5.67 -6.32 5.34 -7 5 C-6.67 4.01 -6.34 3.02 -6 2 C-2.9375 0.8125 -2.9375 0.8125 0 0 Z " fill="#FEEBBB" transform="translate(258,175)"/>
<path d="M0 0 C0.33 0.66 0.66 1.32 1 2 C0.01 2.33 -0.98 2.66 -2 3 C-2.33 3.66 -2.66 4.32 -3 5 C-5.31 4.67 -7.62 4.34 -10 4 C-9.67 3.34 -9.34 2.68 -9 2 C-8.2575 2.04125 -7.515 2.0825 -6.75 2.125 C-3.91241048 1.99601866 -2.41226062 1.42948778 0 0 Z " fill="#0D0A04" transform="translate(185,300)"/>
<path d="M0 0 C0.99 0 1.98 0 3 0 C1.61122646 3.35620271 0.08322035 5.07298728 -3 7 C-3.66 7 -4.32 7 -5 7 C-4.67 6.01 -4.34 5.02 -4 4 C-3.01 4 -2.02 4 -1 4 C-0.67 2.68 -0.34 1.36 0 0 Z " fill="#1F201A" transform="translate(187,298)"/>
<path d="M0 0 C0.33 0 0.66 0 1 0 C1 2.64 1 5.28 1 8 C0.01 8 -0.98 8 -2 8 C-2.125 5.125 -2.125 5.125 -2 2 C-1.34 1.34 -0.68 0.68 0 0 Z " fill="#100E04" transform="translate(249,288)"/>
<path d="M0 0 C2.475 0.99 2.475 0.99 5 2 C4 4 4 4 2 7 C1.01 6.67 0.02 6.34 -1 6 C-0.67 4.02 -0.34 2.04 0 0 Z " fill="#FEE5B2" transform="translate(260,167)"/>
<path d="M0 0 C0.66 0 1.32 0 2 0 C2.33 1.32 2.66 2.64 3 4 C4.98 4 6.96 4 9 4 C8.67 4.66 8.34 5.32 8 6 C4.7 6 1.4 6 -2 6 C-1.34 5.34 -0.68 4.68 0 4 C0 2.68 0 1.36 0 0 Z " fill="#E6DCBA" transform="translate(226,146)"/>
<path d="M0 0 C1.485 0.99 1.485 0.99 3 2 C3.3125 5 3.3125 5 3 8 C2.34 8.66 1.68 9.32 1 10 C-0.1577506 6.52674819 -0.06866652 3.63932552 0 0 Z " fill="#19190F" transform="translate(225,289)"/>
<path d="M0 0 C2.64 0 5.28 0 8 0 C8.33 1.65 8.66 3.3 9 5 C4.545 3.02 4.545 3.02 0 1 C0 0.67 0 0.34 0 0 Z " fill="#F3B82D" transform="translate(241,177)"/>
<path d="M0 0 C0.33 0 0.66 0 1 0 C1.08131463 1.43655854 1.13933559 2.8744483 1.1875 4.3125 C1.22230469 5.11300781 1.25710937 5.91351563 1.29296875 6.73828125 C0.93801608 9.47851584 0.10633718 10.29171079 -2 12 C-2.33 10.68 -2.66 9.36 -3 8 C-2.01 8 -1.02 8 0 8 C0 5.36 0 2.72 0 0 Z " fill="#35342C" transform="translate(250,288)"/>
<path d="M0 0 C1.485 0.99 1.485 0.99 3 2 C4.65549531 2.38499891 6.3222433 2.72793135 8 3 C5 5 5 5 2 5 C1.67 5.99 1.34 6.98 1 8 C0.67 5.36 0.34 2.72 0 0 Z " fill="#D7A834" transform="translate(192,234)"/>
<path d="M0 0 C0.66 1.32 1.32 2.64 2 4 C2.66 4 3.32 4 4 4 C4 3.34 4 2.68 4 2 C4.66 2 5.32 2 6 2 C6 2.99 6 3.98 6 5 C4.34385343 5.38218767 2.67542976 5.71395102 1 6 C0 5 0 5 -0.0625 2.4375 C-0.041875 1.633125 -0.02125 0.82875 0 0 Z " fill="#CF9F39" transform="translate(195,229)"/>
<path d="M0 0 C0.99 0.33 1.98 0.66 3 1 C2.67 2.32 2.34 3.64 2 5 C0.68 5.33 -0.64 5.66 -2 6 C-2.33 5.34 -2.66 4.68 -3 4 C-2.01 4 -1.02 4 0 4 C0 2.68 0 1.36 0 0 Z " fill="#D5A036" transform="translate(227,229)"/>
<path d="M0 0 C0.33 0 0.66 0 1 0 C1 1.65 1 3.3 1 5 C1.66 5 2.32 5 3 5 C2.34 6.98 1.68 8.96 1 11 C0.34 11 -0.32 11 -1 11 C-0.67 7.37 -0.34 3.74 0 0 Z " fill="#DDD5BE" transform="translate(267,222)"/>
<path d="M0 0 C1 3 1 3 0.25 5.625 C-1 8 -1 8 -4 9 C-4 8.01 -4 7.02 -4 6 C-3.34 6 -2.68 6 -2 6 C-1.855625 5.195625 -1.71125 4.39125 -1.5625 3.5625 C-1 1 -1 1 0 0 Z " fill="#E8D8BF" transform="translate(203,163)"/>
<path d="M0 0 C-1.65 1.32 -3.3 2.64 -5 4 C-5 3.34 -5 2.68 -5 2 C-6.32 2.33 -7.64 2.66 -9 3 C-9 2.34 -9 1.68 -9 1 C-2.25 -1.125 -2.25 -1.125 0 0 Z " fill="#EAE1CA" transform="translate(186,305)"/>
<path d="M0 0 C0.66 0.33 1.32 0.66 2 1 C1.67 2.32 1.34 3.64 1 5 C-2.3 4.67 -5.6 4.34 -9 4 C-9 3.67 -9 3.34 -9 3 C-5.92382812 2.70703125 -5.92382812 2.70703125 -2.84765625 2.4140625 C-2.23792969 2.27742187 -1.62820312 2.14078125 -1 2 C-0.67 1.34 -0.34 0.68 0 0 Z " fill="#C5972B" transform="translate(225,249)"/>
<path d="M0 0 C1.2380014 3.57644848 0.74926071 6.33694766 0 10 C-1.85776765 6.86501708 -2.20140476 4.62528568 -2 1 C-1.34 0.67 -0.68 0.34 0 0 Z " fill="#161514" transform="translate(265,231)"/>
<path d="M0 0 C0.33 0 0.66 0 1 0 C1.25 2.3125 1.25 2.3125 1 5 C-1 6.8125 -1 6.8125 -3 8 C-2.25 2.25 -2.25 2.25 0 0 Z " fill="#E8B02A" transform="translate(197,218)"/>
<path d="M0 0 C0.66 0 1.32 0 2 0 C1.125 4.75 1.125 4.75 0 7 C-0.66 7 -1.32 7 -2 7 C-1.125 1.125 -1.125 1.125 0 0 Z " fill="#422707" transform="translate(187,186)"/>
<path d="M0 0 C0.99 0.33 1.98 0.66 3 1 C3.33 1.99 3.66 2.98 4 4 C3.34 4 2.68 4 2 4 C1.67 4.33 1.34 4.66 1 5 C-0.32 5 -1.64 5 -3 5 C-2 2 -2 2 0 0 Z " fill="#F8EAC6" transform="translate(131,177)"/>
<path d="M0 0 C0.99 0.33 1.98 0.66 3 1 C3 2.98 3 4.96 3 7 C2.01 7.33 1.02 7.66 0 8 C0 5.36 0 2.72 0 0 Z " fill="#FEEBB6" transform="translate(244,145)"/>
<path d="M0 0 C1.65 0.33 3.3 0.66 5 1 C2.64031256 3.09749995 1.45383006 3.96905704 -1.75 4.1875 C-2.86375 4.0946875 -2.86375 4.0946875 -4 4 C-3.01 3.67 -2.02 3.34 -1 3 C-0.67 2.01 -0.34 1.02 0 0 Z " fill="#432502" transform="translate(205,168)"/>
<path d="M0 0 C2.475 0.495 2.475 0.495 5 1 C5 1.99 5 2.98 5 4 C4.01 4.33 3.02 4.66 2 5 C1.34 3.35 0.68 1.7 0 0 Z " fill="#9B713D" transform="translate(202,152)"/>
<path d="M0 0 C2.86724686 0.57344937 3.8614515 0.8614515 6 3 C3.69 3.33 1.38 3.66 -1 4 C-0.67 2.68 -0.34 1.36 0 0 Z " fill="#3F2609" transform="translate(200,149)"/>
</svg>
